<svg width="221" height="221" viewBox="0 0 221 221" fill="none" xmlns="http://www.w3.org/2000/svg">
<circle cx="110.106" cy="110.106" r="84.974" transform="rotate(-18.5305 110.106 110.106)" fill="#ADE4D4" stroke="#77C3AD" stroke-width="4"/>
<circle cx="110.106" cy="110.106" r="72.305" transform="rotate(-18.5305 110.106 110.106)" stroke="#77C3AD" stroke-width="3" stroke-linecap="square" stroke-linejoin="round" stroke-dasharray="7 15"/>
<rect x="58.7666" y="96.9033" width="91.2692" height="57.5909" rx="24.5" transform="rotate(-16.803 58.7666 96.9033)" fill="#E3F5F0"/>
<path d="M99.1514 114.885L109.611 111.379L110.634 114.431L86.0409 122.674L85.018 119.622L95.418 116.137L94.3355 112.907L98.0689 111.655L99.1514 114.885ZM98.8043 120.044C100.76 119.389 102.502 119.014 104.03 118.919C105.555 118.814 106.807 118.993 107.786 119.456C108.775 119.916 109.445 120.652 109.796 121.666C110.127 122.687 110.036 123.679 109.524 124.641C109.022 125.601 108.131 126.498 106.851 127.334C105.574 128.179 103.958 128.93 102.002 129.585C100.027 130.247 98.2702 130.627 96.732 130.725C95.1972 130.833 93.9352 130.657 92.9463 130.198C91.9573 129.738 91.2923 129 90.9513 127.983C90.6103 126.965 90.696 125.975 91.2082 125.013C91.7205 124.05 92.6216 123.149 93.9114 122.31C95.198 121.462 96.8289 120.706 98.8043 120.044ZM99.7676 122.918C96.0046 124.18 94.3498 125.437 94.8032 126.692C95.0151 127.357 95.635 127.698 96.6627 127.716C97.6971 127.721 99.1624 127.406 101.059 126.77C102.906 126.151 104.245 125.526 105.078 124.896C105.907 124.255 106.215 123.603 106.003 122.938C105.55 121.683 103.471 121.677 99.7676 122.918ZM104.449 103.354L97.1154 105.812C97.5676 106.374 98.2403 106.824 99.1336 107.162C100.033 107.487 101.15 107.656 102.484 107.671C103.815 107.675 105.315 107.48 106.985 107.085L106.645 110.495C104.073 111.082 101.792 111.226 99.802 110.926C97.8085 110.617 96.2229 109.918 95.0452 108.829C94.7513 110.411 93.9122 111.923 92.5278 113.364C91.1401 114.796 89.2482 116.051 86.8519 117.129L84.5254 114.613C86.0856 113.925 87.3905 113.18 88.4399 112.378C89.4993 111.573 90.2901 110.769 90.8126 109.968C91.3317 109.157 91.5956 108.387 91.6042 107.659L84.3301 110.097L83.3369 107.134L103.456 100.391L104.449 103.354ZM139.636 113.642L114.955 121.915L113.912 118.803L120.223 116.688L118.843 112.57L115.376 113.732L112.337 104.665L127.596 99.55L126.623 96.6463L111.334 101.771L110.321 98.7487L129.343 92.3727L132.343 101.321L117.143 106.416L118.146 109.408L133.968 104.105L134.991 107.157L131.169 108.438L132.549 112.557L138.594 110.53L139.636 113.642ZM128.845 113.798L127.465 109.679L122.517 111.338L123.897 115.457L128.845 113.798Z" fill="#60A490"/>
</svg>
