<svg width="357" height="309" viewBox="0 0 357 309" fill="none" xmlns="http://www.w3.org/2000/svg">
<mask id="path-1-outside-1_300_152" maskUnits="userSpaceOnUse" x="-8.71631e-07" y="0" width="357" height="309" fill="black">
<rect fill="white" x="-8.71631e-07" width="357" height="309"/>
<path fill-rule="evenodd" clip-rule="evenodd" d="M321.555 170.097C325.328 158.653 327.35 146.561 327.35 134.058C327.35 62.2289 260.634 4 178.336 4C96.0385 4 29.3228 62.2289 29.3228 134.058C29.3228 145.926 31.1442 157.423 34.5563 168.347C16.9516 172.685 4 187.335 4 204.74C4 225.56 22.5321 242.438 45.3927 242.438C49.2852 242.438 53.0522 241.949 56.6237 241.034C56.6029 241.5 56.5924 241.969 56.5924 242.439C56.5924 263.259 77.0868 280.137 102.368 280.137C109.646 280.137 116.528 278.738 122.638 276.249C128.956 292.567 151.497 304.639 178.336 304.639C206 304.639 229.098 291.814 234.57 274.733C241.468 278.163 249.554 280.137 258.2 280.137C282.955 280.137 303.121 263.954 303.949 243.733C306.328 244.12 308.778 244.322 311.28 244.322C334.141 244.322 352.673 227.444 352.673 206.624C352.673 189.035 339.445 174.259 321.555 170.097Z"/>
</mask>
<path fill-rule="evenodd" clip-rule="evenodd" d="M321.555 170.097C325.328 158.653 327.35 146.561 327.35 134.058C327.35 62.2289 260.634 4 178.336 4C96.0385 4 29.3228 62.2289 29.3228 134.058C29.3228 145.926 31.1442 157.423 34.5563 168.347C16.9516 172.685 4 187.335 4 204.74C4 225.56 22.5321 242.438 45.3927 242.438C49.2852 242.438 53.0522 241.949 56.6237 241.034C56.6029 241.5 56.5924 241.969 56.5924 242.439C56.5924 263.259 77.0868 280.137 102.368 280.137C109.646 280.137 116.528 278.738 122.638 276.249C128.956 292.567 151.497 304.639 178.336 304.639C206 304.639 229.098 291.814 234.57 274.733C241.468 278.163 249.554 280.137 258.2 280.137C282.955 280.137 303.121 263.954 303.949 243.733C306.328 244.12 308.778 244.322 311.28 244.322C334.141 244.322 352.673 227.444 352.673 206.624C352.673 189.035 339.445 174.259 321.555 170.097Z" fill="#FFB69B"/>
<path d="M321.555 170.097L317.756 168.844L316.385 173.001L320.649 173.993L321.555 170.097ZM34.5563 168.347L35.5132 172.231L39.6422 171.214L38.3744 167.155L34.5563 168.347ZM56.6237 241.034L60.6197 241.212L60.8596 235.82L55.6311 237.159L56.6237 241.034ZM102.368 280.137L102.368 284.137H102.368L102.368 280.137ZM122.638 276.249L126.369 274.805L124.899 271.009L121.129 272.545L122.638 276.249ZM234.57 274.733L236.351 271.151L232.181 269.077L230.761 273.512L234.57 274.733ZM303.949 243.733L304.592 239.785L300.137 239.06L299.952 243.569L303.949 243.733ZM323.35 134.058C323.35 146.127 321.399 157.796 317.756 168.844L325.354 171.35C329.258 159.51 331.35 146.996 331.35 134.058H323.35ZM178.336 8C258.954 8 323.35 64.9318 323.35 134.058H331.35C331.35 59.5259 262.315 0 178.336 0L178.336 8ZM33.3228 134.058C33.3228 64.9318 97.7191 8 178.336 8L178.336 0C94.3578 0 25.3228 59.5259 25.3228 134.058H33.3228ZM38.3744 167.155C35.0804 156.609 33.3228 145.514 33.3228 134.058H25.3228C25.3228 146.339 27.2079 158.237 30.7382 169.54L38.3744 167.155ZM8 204.74C8 189.448 19.4171 176.197 35.5132 172.231L33.5994 164.463C14.4861 169.173 -5.17898e-07 185.222 -5.73677e-07 204.74H8ZM45.3927 238.438C24.3811 238.438 8 223.007 8 204.74H-5.73677e-07C-6.40472e-07 228.113 20.6832 246.438 45.3927 246.438L45.3927 238.438ZM55.6311 237.159C52.3829 237.991 48.9493 238.438 45.3927 238.438L45.3927 246.438C49.6211 246.438 53.7216 245.906 57.6162 244.909L55.6311 237.159ZM60.5924 242.439C60.5924 242.028 60.6016 241.619 60.6197 241.212L52.6276 240.856C52.6042 241.382 52.5924 241.91 52.5924 242.439H60.5924ZM102.368 276.137C78.5344 276.137 60.5924 260.359 60.5924 242.439H52.5924C52.5924 266.16 75.6392 284.137 102.368 284.137L102.368 276.137ZM121.129 272.545C115.504 274.836 109.135 276.137 102.368 276.137L102.368 284.137C110.158 284.137 117.553 282.64 124.148 279.953L121.129 272.545ZM178.336 300.639C165.494 300.639 153.788 297.747 144.629 293.01C135.428 288.252 129.073 281.791 126.369 274.805L118.908 277.693C122.521 287.025 130.595 294.759 140.954 300.116C151.354 305.495 164.339 308.639 178.336 308.639L178.336 300.639ZM230.761 273.512C228.435 280.773 222.198 287.549 212.878 292.569C203.602 297.566 191.575 300.639 178.336 300.639L178.336 308.639C192.761 308.639 206.115 305.299 216.672 299.613C227.185 293.95 235.233 285.774 238.379 275.953L230.761 273.512ZM258.2 276.137C250.16 276.137 242.685 274.301 236.351 271.151L232.789 278.314C240.251 282.025 248.948 284.137 258.2 284.137L258.2 276.137ZM299.952 243.569C299.238 261.004 281.518 276.137 258.2 276.137L258.2 284.137C284.393 284.137 307.004 266.904 307.946 243.897L299.952 243.569ZM311.28 240.322C308.994 240.322 306.759 240.138 304.592 239.785L303.306 247.681C305.898 248.103 308.563 248.322 311.28 248.322L311.28 240.322ZM348.673 206.624C348.673 224.892 332.292 240.322 311.28 240.322L311.28 248.322C335.99 248.322 356.673 229.997 356.673 206.624H348.673ZM320.649 173.993C337.011 177.799 348.673 191.171 348.673 206.624H356.673C356.673 186.899 341.879 170.718 322.461 166.201L320.649 173.993Z" fill="#FF8564" mask="url(#path-1-outside-1_300_152)"/>
</svg>
