<svg width="358" height="309" viewBox="0 0 358 309" fill="none" xmlns="http://www.w3.org/2000/svg">
<mask id="path-1-outside-1_300_162" maskUnits="userSpaceOnUse" x="0.427245" y="0" width="357" height="309" fill="black">
<rect fill="white" x="0.427245" width="357" height="309"/>
<path fill-rule="evenodd" clip-rule="evenodd" d="M321.982 170.097C325.756 158.653 327.777 146.561 327.777 134.058C327.777 62.2289 261.062 4 178.764 4C96.4657 4 29.75 62.2289 29.75 134.058C29.75 145.926 31.5714 157.423 34.9835 168.347C17.3788 172.685 4.42725 187.335 4.42725 204.74C4.42725 225.56 22.9594 242.438 45.8199 242.438C49.7125 242.438 53.4797 241.949 57.0512 241.034C57.0304 241.5 57.0199 241.969 57.0199 242.439C57.0199 263.259 77.5143 280.137 102.795 280.137C110.074 280.137 116.956 278.738 123.066 276.249C129.383 292.567 151.924 304.639 178.763 304.639C206.427 304.639 229.525 291.814 234.997 274.733C241.895 278.163 249.981 280.137 258.627 280.137C283.383 280.137 303.548 263.954 304.376 243.733C306.756 244.12 309.206 244.322 311.707 244.322C334.568 244.322 353.1 227.444 353.1 206.624C353.1 189.035 339.872 174.259 321.982 170.097Z"/>
</mask>
<path fill-rule="evenodd" clip-rule="evenodd" d="M321.982 170.097C325.756 158.653 327.777 146.561 327.777 134.058C327.777 62.2289 261.062 4 178.764 4C96.4657 4 29.75 62.2289 29.75 134.058C29.75 145.926 31.5714 157.423 34.9835 168.347C17.3788 172.685 4.42725 187.335 4.42725 204.74C4.42725 225.56 22.9594 242.438 45.8199 242.438C49.7125 242.438 53.4797 241.949 57.0512 241.034C57.0304 241.5 57.0199 241.969 57.0199 242.439C57.0199 263.259 77.5143 280.137 102.795 280.137C110.074 280.137 116.956 278.738 123.066 276.249C129.383 292.567 151.924 304.639 178.763 304.639C206.427 304.639 229.525 291.814 234.997 274.733C241.895 278.163 249.981 280.137 258.627 280.137C283.383 280.137 303.548 263.954 304.376 243.733C306.756 244.12 309.206 244.322 311.707 244.322C334.568 244.322 353.1 227.444 353.1 206.624C353.1 189.035 339.872 174.259 321.982 170.097Z" fill="#ADE4D4"/>
<path d="M321.982 170.097L318.183 168.844L316.813 173.001L321.076 173.993L321.982 170.097ZM34.9835 168.347L35.9404 172.231L40.0694 171.214L38.8016 167.155L34.9835 168.347ZM57.0512 241.034L61.0472 241.212L61.2872 235.82L56.0586 237.159L57.0512 241.034ZM102.795 280.137L102.795 284.137H102.795L102.795 280.137ZM123.066 276.249L126.796 274.805L125.326 271.009L121.556 272.545L123.066 276.249ZM234.997 274.733L236.778 271.151L232.609 269.077L231.188 273.512L234.997 274.733ZM304.376 243.733L305.019 239.785L300.564 239.06L300.38 243.569L304.376 243.733ZM323.777 134.058C323.777 146.127 321.827 157.796 318.183 168.844L325.781 171.35C329.685 159.51 331.777 146.996 331.777 134.058H323.777ZM178.764 8C259.381 8 323.777 64.9318 323.777 134.058H331.777C331.777 59.5259 262.742 0 178.764 0L178.764 8ZM33.75 134.058C33.75 64.9318 98.1464 8 178.764 8L178.764 0C94.7851 0 25.75 59.5259 25.75 134.058H33.75ZM38.8016 167.155C35.5076 156.609 33.75 145.514 33.75 134.058H25.75C25.75 146.339 27.6352 158.237 31.1654 169.54L38.8016 167.155ZM8.42725 204.74C8.42725 189.448 19.8444 176.197 35.9404 172.231L34.0266 164.463C14.9133 169.173 0.427246 185.222 0.427246 204.74H8.42725ZM45.8199 238.438C24.8083 238.438 8.42725 223.007 8.42725 204.74H0.427246C0.427245 228.113 21.1104 246.438 45.8199 246.438L45.8199 238.438ZM56.0586 237.159C52.8103 237.991 49.3766 238.438 45.8199 238.438L45.8199 246.438C50.0484 246.438 54.149 245.906 58.0437 244.909L56.0586 237.159ZM61.0199 242.439C61.0199 242.028 61.0291 241.619 61.0472 241.212L53.0551 240.856C53.0317 241.382 53.0199 241.909 53.0199 242.439H61.0199ZM102.795 276.137C78.9619 276.137 61.0199 260.359 61.0199 242.439H53.0199C53.0199 266.16 76.0667 284.137 102.795 284.137L102.795 276.137ZM121.556 272.545C115.931 274.836 109.562 276.137 102.795 276.137L102.795 284.137C110.585 284.137 117.98 282.64 124.575 279.953L121.556 272.545ZM178.763 300.639C165.921 300.639 154.216 297.747 145.056 293.01C135.855 288.252 129.5 281.791 126.796 274.805L119.335 277.693C122.948 287.025 131.022 294.759 141.381 300.116C151.782 305.495 164.766 308.639 178.763 308.639L178.763 300.639ZM231.188 273.512C228.862 280.773 222.626 287.549 213.305 292.569C204.03 297.566 192.002 300.639 178.763 300.639L178.763 308.639C193.189 308.639 206.542 305.299 217.099 299.613C227.612 293.95 235.661 285.774 238.807 275.953L231.188 273.512ZM258.627 276.137C250.587 276.137 243.112 274.301 236.778 271.151L233.216 278.314C240.678 282.025 249.375 284.137 258.627 284.137L258.627 276.137ZM300.38 243.569C299.666 261.004 281.945 276.137 258.627 276.137L258.627 284.137C284.82 284.137 307.431 266.904 308.373 243.897L300.38 243.569ZM311.707 240.322C309.421 240.322 307.186 240.138 305.019 239.785L303.734 247.681C306.325 248.103 308.99 248.322 311.707 248.322L311.707 240.322ZM349.1 206.624C349.1 224.892 332.719 240.322 311.707 240.322L311.707 248.322C336.417 248.322 357.1 229.997 357.1 206.624H349.1ZM321.076 173.993C337.438 177.799 349.1 191.171 349.1 206.624H357.1C357.1 186.899 342.307 170.718 322.888 166.201L321.076 173.993Z" fill="#8AD7C1" mask="url(#path-1-outside-1_300_162)"/>
</svg>
