<svg width="358" height="309" viewBox="0 0 358 309" fill="none" xmlns="http://www.w3.org/2000/svg">
<mask id="path-1-outside-1_300_170" maskUnits="userSpaceOnUse" x="0.855712" y="0" width="357" height="309" fill="black">
<rect fill="white" x="0.855712" width="357" height="309"/>
<path fill-rule="evenodd" clip-rule="evenodd" d="M322.411 170.097C326.184 158.653 328.206 146.561 328.206 134.058C328.206 62.2289 261.49 4 179.192 4C96.8942 4 30.1785 62.2289 30.1785 134.058C30.1785 145.926 31.9999 157.423 35.412 168.347C17.8073 172.685 4.85571 187.335 4.85571 204.74C4.85571 225.56 23.3878 242.438 46.2484 242.438C50.1411 242.438 53.9083 241.949 57.4799 241.034C57.4591 241.5 57.4486 241.969 57.4486 242.439C57.4486 263.259 77.943 280.137 103.224 280.137C110.502 280.137 117.384 278.738 123.494 276.249C129.811 292.567 152.353 304.639 179.192 304.639C206.856 304.639 229.954 291.814 235.426 274.732C242.324 278.163 250.41 280.137 259.056 280.137C283.811 280.137 303.977 263.954 304.805 243.733C307.184 244.12 309.634 244.322 312.136 244.322C334.996 244.322 353.528 227.444 353.528 206.624C353.528 189.035 340.301 174.259 322.411 170.097Z"/>
</mask>
<path fill-rule="evenodd" clip-rule="evenodd" d="M322.411 170.097C326.184 158.653 328.206 146.561 328.206 134.058C328.206 62.2289 261.49 4 179.192 4C96.8942 4 30.1785 62.2289 30.1785 134.058C30.1785 145.926 31.9999 157.423 35.412 168.347C17.8073 172.685 4.85571 187.335 4.85571 204.74C4.85571 225.56 23.3878 242.438 46.2484 242.438C50.1411 242.438 53.9083 241.949 57.4799 241.034C57.4591 241.5 57.4486 241.969 57.4486 242.439C57.4486 263.259 77.943 280.137 103.224 280.137C110.502 280.137 117.384 278.738 123.494 276.249C129.811 292.567 152.353 304.639 179.192 304.639C206.856 304.639 229.954 291.814 235.426 274.732C242.324 278.163 250.41 280.137 259.056 280.137C283.811 280.137 303.977 263.954 304.805 243.733C307.184 244.12 309.634 244.322 312.136 244.322C334.996 244.322 353.528 227.444 353.528 206.624C353.528 189.035 340.301 174.259 322.411 170.097Z" fill="#6A1221"/>
<path d="M322.411 170.097L318.612 168.844L317.241 173.001L321.504 173.993L322.411 170.097ZM35.412 168.347L36.3689 172.231L40.4979 171.214L39.2301 167.155L35.412 168.347ZM57.4799 241.034L61.4759 241.212L61.7159 235.82L56.4873 237.159L57.4799 241.034ZM103.224 280.137L103.224 284.137H103.224L103.224 280.137ZM123.494 276.249L127.224 274.805L125.755 271.009L121.985 272.545L123.494 276.249ZM235.426 274.732L237.207 271.151L233.037 269.077L231.616 273.512L235.426 274.732ZM304.805 243.733L305.448 239.785L300.993 239.06L300.808 243.569L304.805 243.733ZM324.206 134.058C324.206 146.127 322.255 157.796 318.612 168.844L326.209 171.35C330.113 159.51 332.206 146.996 332.206 134.058H324.206ZM179.192 8C259.809 8 324.206 64.9318 324.206 134.058H332.206C332.206 59.5259 263.171 0 179.192 0L179.192 8ZM34.1785 134.058C34.1785 64.9318 98.5748 8 179.192 8L179.192 0C95.2135 0 26.1785 59.5259 26.1785 134.058H34.1785ZM39.2301 167.155C35.9361 156.609 34.1785 145.514 34.1785 134.058H26.1785C26.1785 146.339 28.0637 158.237 31.5939 169.54L39.2301 167.155ZM8.85571 204.74C8.85571 189.448 20.2728 176.197 36.3689 172.231L34.4551 164.463C15.3418 169.173 0.855712 185.222 0.855712 204.74H8.85571ZM46.2484 238.438C25.2368 238.438 8.85571 223.007 8.85571 204.74H0.855712C0.855712 228.113 21.5389 246.438 46.2484 246.438L46.2484 238.438ZM56.4873 237.159C53.239 237.991 49.8052 238.438 46.2484 238.438L46.2484 246.438C50.477 246.438 54.5776 245.906 58.4725 244.909L56.4873 237.159ZM61.4486 242.439C61.4486 242.028 61.4578 241.619 61.4759 241.212L53.4838 240.856C53.4604 241.382 53.4486 241.909 53.4486 242.439H61.4486ZM103.224 276.137C79.3906 276.137 61.4486 260.359 61.4486 242.439H53.4486C53.4486 266.16 76.4954 284.137 103.224 284.137L103.224 276.137ZM121.985 272.545C116.36 274.836 109.991 276.137 103.224 276.137L103.224 284.137C111.014 284.137 118.408 282.64 125.003 279.954L121.985 272.545ZM179.192 300.639C166.35 300.639 154.644 297.747 145.485 293.01C136.284 288.252 129.929 281.791 127.224 274.805L119.764 277.693C123.377 287.026 131.451 294.759 141.81 300.116C152.21 305.495 165.195 308.639 179.192 308.639L179.192 300.639ZM231.616 273.512C229.291 280.773 223.054 287.549 213.734 292.569C204.458 297.566 192.43 300.639 179.192 300.639L179.192 308.639C193.617 308.639 206.971 305.299 217.528 299.613C228.041 293.95 236.089 285.774 239.235 275.953L231.616 273.512ZM259.056 276.137C251.016 276.137 243.541 274.301 237.207 271.151L233.644 278.314C241.107 282.025 249.804 284.137 259.056 284.137L259.056 276.137ZM300.808 243.569C300.094 261.004 282.374 276.137 259.056 276.137L259.056 284.137C285.249 284.137 307.86 266.904 308.802 243.897L300.808 243.569ZM312.136 240.322C309.85 240.322 307.615 240.138 305.448 239.785L304.162 247.681C306.754 248.103 309.418 248.322 312.136 248.322L312.136 240.322ZM349.528 206.624C349.528 224.892 333.147 240.322 312.136 240.322L312.136 248.322C336.845 248.322 357.528 229.997 357.528 206.624H349.528ZM321.504 173.993C337.866 177.799 349.528 191.171 349.528 206.624H357.528C357.528 186.899 342.735 170.718 323.317 166.201L321.504 173.993Z" fill="#510D19" mask="url(#path-1-outside-1_300_170)"/>
</svg>
