<svg width="195" height="25" viewBox="0 0 195 25" fill="none" xmlns="http://www.w3.org/2000/svg">
<path d="M2 23C4 15 13.2 2 34 2C54.8 2 66 16 67.5 23C69.8333 16 79.6 2 100 2C120.4 2 128.833 16 130.5 23C132.833 16 142.6 2 163 2C183.4 2 191.833 16 193.5 23H130.5H67.5H2Z" fill="#FFF1D8"/>
<path d="M2 23C4 15 13.2 2 34 2C54.8 2 66 16 67.5 23C69.8333 16 79.6 2 100 2C120.4 2 128.833 16 130.5 23C132.833 16 142.6 2 163 2C183.4 2 191.833 16 193.5 23" stroke="#6A1221" stroke-width="2.5" stroke-linecap="round" stroke-linejoin="round"/>
</svg>
