<svg width="134" height="146" viewBox="0 0 134 146" fill="none" xmlns="http://www.w3.org/2000/svg">
<mask id="path-1-inside-1_654_79" fill="white">
<path fill-rule="evenodd" clip-rule="evenodd" d="M86.3554 18.5173C85.5885 12.0686 77.216 10.0496 73.5941 15.4399L19.5889 95.8143C19.2644 96.2973 19.0092 96.8011 18.8195 97.316C11.7864 95.9389 4.85225 100.339 3.15585 107.373C1.41292 114.601 5.85909 121.873 13.0866 123.616L91.6541 142.562C98.8817 144.305 106.154 139.859 107.897 132.632C109.64 125.404 105.193 118.132 97.9658 116.389L97.7922 116.347C97.8564 115.806 97.8584 115.246 97.7902 114.673L86.3554 18.5173Z"/>
</mask>
<path fill-rule="evenodd" clip-rule="evenodd" d="M86.3554 18.5173C85.5885 12.0686 77.216 10.0496 73.5941 15.4399L19.5889 95.8143C19.2644 96.2973 19.0092 96.8011 18.8195 97.316C11.7864 95.9389 4.85225 100.339 3.15585 107.373C1.41292 114.601 5.85909 121.873 13.0866 123.616L91.6541 142.562C98.8817 144.305 106.154 139.859 107.897 132.632C109.64 125.404 105.193 118.132 97.9658 116.389L97.7922 116.347C97.8564 115.806 97.8584 115.246 97.7902 114.673L86.3554 18.5173Z" fill="#FFD3C0"/>
<path d="M73.5941 15.4399L70.689 13.4879L70.689 13.4879L73.5941 15.4399ZM86.3554 18.5173L89.8309 18.104L89.8309 18.104L86.3554 18.5173ZM19.5889 95.8143L22.494 97.7664L22.494 97.7663L19.5889 95.8143ZM18.8195 97.316L18.1469 100.751L21.0726 101.324L22.1035 98.5263L18.8195 97.316ZM13.0866 123.616L13.9071 120.213L13.0866 123.616ZM91.6541 142.562L90.8336 145.965L91.6541 142.562ZM97.7922 116.347L94.3166 115.934L93.9497 119.021L96.9716 119.75L97.7922 116.347ZM97.7902 114.673L101.266 114.259L101.266 114.259L97.7902 114.673ZM76.4993 17.3919C78.3102 14.6968 82.4965 15.7063 82.8799 18.9306L89.8309 18.104C88.6806 8.431 76.1218 5.40245 70.689 13.4879L76.4993 17.3919ZM22.494 97.7663L76.4993 17.3919L70.689 13.4879L16.6838 93.8623L22.494 97.7663ZM22.1035 98.5263C22.197 98.2727 22.325 98.0178 22.494 97.7664L16.6838 93.8623C16.2038 94.5767 15.8214 95.3296 15.5354 96.1057L22.1035 98.5263ZM6.55832 108.194C7.81345 102.989 12.945 99.7322 18.1469 100.751L19.492 93.8812C10.6278 92.1456 1.89106 97.6883 -0.24661 106.553L6.55832 108.194ZM13.9071 120.213C8.55872 118.923 5.26854 113.542 6.55832 108.194L-0.24661 106.553C-2.4427 115.659 3.15945 124.822 12.2661 127.018L13.9071 120.213ZM92.4746 139.16L13.9071 120.213L12.2661 127.018L90.8336 145.965L92.4746 139.16ZM104.494 131.811C103.204 137.16 97.823 140.45 92.4746 139.16L90.8336 145.965C99.9403 148.161 109.103 142.559 111.299 133.452L104.494 131.811ZM97.1453 119.792C102.494 121.081 105.784 126.463 104.494 131.811L111.299 133.452C113.495 124.345 107.893 115.183 98.7863 112.987L97.1453 119.792ZM96.9716 119.75L97.1453 119.792L98.7863 112.987L98.6127 112.945L96.9716 119.75ZM94.3147 115.086C94.3502 115.385 94.3483 115.668 94.3166 115.934L101.268 116.76C101.365 115.945 101.367 115.107 101.266 114.259L94.3147 115.086ZM82.8799 18.9306L94.3147 115.086L101.266 114.259L89.8309 18.104L82.8799 18.9306Z" fill="#FF663D" mask="url(#path-1-inside-1_654_79)"/>
<path d="M30.4915 103.883L84.1944 117.309" stroke="#FF663D" stroke-width="3.5" stroke-linecap="round"/>
<path d="M48.2104 69.2178L65.4283 95.3552" stroke="#FF6D46" stroke-width="3.5" stroke-linecap="round"/>
<path d="M72.9639 59.7266L46.8265 76.9445" stroke="#FF6D46" stroke-width="3.5" stroke-linecap="round"/>
<path d="M56.7644 63.583L73.9823 89.7204" stroke="#FF6D46" stroke-width="3.5" stroke-linecap="round"/>
<path d="M78.5989 68.2793L52.4615 85.4972" stroke="#FF6D46" stroke-width="3.5" stroke-linecap="round"/>
<path d="M65.3186 57.9473L82.5365 84.0847" stroke="#FF6D46" stroke-width="3.5" stroke-linecap="round"/>
<path d="M84.2336 76.834L58.0962 94.0519" stroke="#FF6D46" stroke-width="3.5" stroke-linecap="round"/>
</svg>
