<svg width="66" height="57" viewBox="0 0 66 57" fill="none" xmlns="http://www.w3.org/2000/svg">
<path fill-rule="evenodd" clip-rule="evenodd" d="M53.6488 43.2352C54.7124 43.5566 55.8709 43.6598 57.0579 43.4971C61.2533 42.9221 64.2139 39.2427 63.6706 35.279C63.1592 31.5476 59.7247 28.8943 55.8238 29.076C56.2358 26.8614 56.3054 24.5643 55.9867 22.2391C54.2276 9.40422 41.3027 0.575526 27.1183 2.51966C12.9339 4.46379 2.86126 16.4445 4.62042 29.2794C4.99146 31.9865 5.8592 34.5154 7.13071 36.8025C3.91094 38.0232 1.83112 41.1933 2.29391 44.5698C2.83718 48.5335 6.67863 51.2806 10.874 50.7056C12.1998 50.5239 13.4022 50.0322 14.4098 49.3195C15.8152 52.0111 18.9314 53.6594 22.2719 53.2016C23.9058 52.9776 25.3524 52.2828 26.4777 51.2838C27.8868 53.9667 30.9976 55.6082 34.332 55.1512C37.8137 54.674 40.445 52.0588 40.929 48.9173C42.5264 50.2234 44.6972 50.8883 46.9721 50.5765C50.856 50.0442 53.6818 46.8512 53.6488 43.2352Z" fill="#DDF5EB"/>
<path d="M53.6488 43.2352L54.155 41.56C53.6222 41.399 53.0446 41.501 52.5992 41.8349C52.1538 42.1687 51.8938 42.6945 51.8989 43.2511L53.6488 43.2352ZM55.8238 29.076L54.1033 28.7559C54.0055 29.2813 54.1532 29.8226 54.5043 30.2255C54.8553 30.6285 55.3713 30.8489 55.9051 30.8241L55.8238 29.076ZM7.13071 36.8025L7.75107 38.4389C8.22633 38.2587 8.59977 37.8808 8.7743 37.4034C8.94883 36.9261 8.9072 36.3964 8.66024 35.9522L7.13071 36.8025ZM14.4098 49.3195L15.961 48.5095C15.7273 48.0618 15.3115 47.7369 14.8206 47.6184C14.3297 47.4998 13.8115 47.5991 13.3992 47.8908L14.4098 49.3195ZM26.4777 51.2838L28.027 50.4701C27.7768 49.9937 27.3213 49.6589 26.7919 49.5622C26.2626 49.4656 25.7182 49.6179 25.3158 49.9751L26.4777 51.2838ZM40.929 48.9173L42.0367 47.5625C41.5505 47.165 40.8886 47.0585 40.3023 47.2834C39.7159 47.5083 39.295 48.0302 39.1994 48.6509L40.929 48.9173ZM53.1425 44.9103C54.4444 45.3038 55.8566 45.4281 57.2955 45.2309L56.8202 41.7633C55.8853 41.8915 54.9804 41.8094 54.155 41.56L53.1425 44.9103ZM57.2955 45.2309C62.3543 44.5376 66.0914 40.0541 65.4044 35.0414L61.9368 35.5167C62.3363 38.4313 60.1522 41.3067 56.8202 41.7633L57.2955 45.2309ZM65.4044 35.0414C64.7579 30.3248 60.4568 27.1084 55.7424 27.3279L55.9051 30.8241C58.9927 30.6803 61.5604 32.7704 61.9368 35.5167L65.4044 35.0414ZM57.5442 29.3961C57.9898 27.0013 58.0651 24.5158 57.7205 22.0015L54.2529 22.4767C54.5457 24.6128 54.4818 26.7216 54.1033 28.7559L57.5442 29.3961ZM57.7205 22.0015C55.8083 8.05002 41.8555 -1.2666 26.8807 0.785869L27.356 4.25345C40.75 2.41765 52.6468 10.7584 54.2529 22.4767L57.7205 22.0015ZM26.8807 0.785869C11.9059 2.83833 0.974432 15.5656 2.88663 29.5171L6.35421 29.0418C4.74809 17.3235 13.9619 6.08925 27.356 4.25345L26.8807 0.785869ZM2.88663 29.5171C3.28792 32.4449 4.22695 35.1809 5.60118 37.6528L8.66024 35.9522C7.49145 33.8498 6.695 31.5281 6.35421 29.0418L2.88663 29.5171ZM6.51035 35.1662C2.60703 36.646 -0.0244331 40.5426 0.56012 44.8075L4.0277 44.3322C3.68668 41.8441 5.21486 39.4004 7.75107 38.4389L6.51035 35.1662ZM0.56012 44.8075C1.24717 49.8202 6.05283 53.1327 11.1116 52.4394L10.6364 48.9718C7.30443 49.4285 4.42719 47.2469 4.0277 44.3322L0.56012 44.8075ZM11.1116 52.4394C12.7191 52.219 14.1862 51.6212 15.4204 50.7481L13.3992 47.8908C12.6183 48.4431 11.6804 48.8287 10.6364 48.9718L11.1116 52.4394ZM12.8585 50.1295C14.6189 53.5007 18.4661 55.4895 22.5095 54.9353L22.0342 51.4678C19.3966 51.8293 17.0116 50.5215 15.961 48.5095L12.8585 50.1295ZM22.5095 54.9353C24.4912 54.6637 26.2584 53.8186 27.6395 52.5925L25.3158 49.9751C24.4463 50.747 23.3203 51.2915 22.0342 51.4678L22.5095 54.9353ZM24.9284 52.0975C26.6931 55.4576 30.5335 57.4382 34.5697 56.885L34.0944 53.4174C31.4617 53.7782 29.0805 52.4759 28.027 50.4701L24.9284 52.0975ZM34.5697 56.885C38.7818 56.3077 42.0512 53.1266 42.6586 49.1838L39.1994 48.6509C38.8389 50.9909 36.8457 53.0403 34.0944 53.4174L34.5697 56.885ZM46.7344 48.8427C44.9441 49.0881 43.26 48.5627 42.0367 47.5625L39.8213 50.2721C41.7927 51.884 44.4503 52.6885 47.2097 52.3103L46.7344 48.8427ZM51.8989 43.2511C51.9232 45.9213 49.8119 48.4209 46.7344 48.8427L47.2097 52.3103C51.9001 51.6674 55.4403 47.7811 55.3987 43.2192L51.8989 43.2511Z" fill="#32A585"/>
</svg>
