<svg width="225" height="218" viewBox="0 0 225 218" fill="none" xmlns="http://www.w3.org/2000/svg">
<path fill-rule="evenodd" clip-rule="evenodd" d="M146.309 215.533C146.175 215.539 146.041 215.542 145.907 215.542C140.988 215.542 137 211.554 137 206.635C137 201.716 140.988 197.728 145.907 197.728C147.436 197.728 148.875 198.113 150.133 198.792C150.681 194.399 154.429 191 158.97 191C163.447 191 167.152 194.302 167.782 198.603C168.949 198.042 170.257 197.728 171.638 197.728C176.557 197.728 180.544 201.716 180.544 206.635C180.544 211.538 176.583 215.516 171.686 215.541L171.687 215.543H146.303L146.309 215.533Z" fill="#58CEAD"/>
<path d="M146.309 215.533L147.846 216.368C148.148 215.814 148.127 215.14 147.793 214.605C147.458 214.07 146.862 213.756 146.231 213.784L146.309 215.533ZM150.133 198.792L149.301 200.332C149.81 200.607 150.421 200.613 150.934 200.348C151.448 200.084 151.798 199.582 151.869 199.009L150.133 198.792ZM167.782 198.603L166.051 198.857C166.132 199.408 166.47 199.887 166.961 200.149C167.453 200.41 168.039 200.422 168.541 200.18L167.782 198.603ZM171.686 215.541L171.676 213.791C170.996 213.795 170.379 214.193 170.095 214.811C169.811 215.43 169.912 216.156 170.352 216.675L171.686 215.541ZM171.687 215.543V217.293C172.369 217.293 172.989 216.897 173.276 216.278C173.562 215.659 173.463 214.93 173.021 214.41L171.687 215.543ZM146.303 215.543L144.765 214.708C144.471 215.25 144.483 215.907 144.799 216.438C145.114 216.968 145.686 217.293 146.303 217.293V215.543ZM146.231 213.784C146.124 213.789 146.016 213.792 145.907 213.792V217.292C146.067 217.292 146.227 217.288 146.386 217.281L146.231 213.784ZM145.907 213.792C141.954 213.792 138.75 210.587 138.75 206.635H135.25C135.25 212.52 140.021 217.292 145.907 217.292V213.792ZM138.75 206.635C138.75 202.682 141.954 199.478 145.907 199.478V195.978C140.021 195.978 135.25 200.749 135.25 206.635H138.75ZM145.907 199.478C147.139 199.478 148.293 199.788 149.301 200.332L150.964 197.253C149.458 196.439 147.733 195.978 145.907 195.978V199.478ZM151.869 199.009C152.31 195.481 155.322 192.75 158.97 192.75V189.25C153.535 189.25 149.052 193.318 148.396 198.576L151.869 199.009ZM158.97 192.75C162.566 192.75 165.544 195.403 166.051 198.857L169.514 198.349C168.759 193.202 164.328 189.25 158.97 189.25V192.75ZM168.541 200.18C169.476 199.731 170.525 199.478 171.638 199.478V195.978C169.988 195.978 168.422 196.354 167.024 197.026L168.541 200.18ZM171.638 199.478C175.59 199.478 178.794 202.682 178.794 206.635H182.294C182.294 200.749 177.523 195.978 171.638 195.978V199.478ZM178.794 206.635C178.794 210.574 175.611 213.771 171.676 213.791L171.695 217.291C177.554 217.26 182.294 212.501 182.294 206.635H178.794ZM170.352 216.675L170.354 216.677L173.021 214.41L173.019 214.408L170.352 216.675ZM171.687 213.793H146.303V217.293H171.687V213.793ZM147.84 216.379L147.846 216.368L144.771 214.697L144.765 214.708L147.84 216.379Z" fill="#32A585"/>
<path fill-rule="evenodd" clip-rule="evenodd" d="M14.0196 56.2285C13.9478 56.2317 13.8755 56.2333 13.8028 56.2333C11.1503 56.2333 9 54.083 9 51.4305C9 48.778 11.1503 46.6277 13.8028 46.6277C14.6273 46.6277 15.4033 46.8354 16.0813 47.2015C16.3772 44.8328 18.398 43 20.8468 43C23.2605 43 25.2584 44.7805 25.5986 47.0997C26.2277 46.7972 26.9328 46.6277 27.6776 46.6277C30.3301 46.6277 32.4804 48.778 32.4804 51.4305C32.4804 54.0746 30.3438 56.2196 27.703 56.2333L27.7044 56.2349H14.0162L14.0196 56.2285Z" fill="#58CEAD"/>
<path d="M14.0196 56.2285L15.5572 57.0642C15.8585 56.5098 15.838 55.836 15.5035 55.3009C15.169 54.7658 14.5724 54.4523 13.942 54.4803L14.0196 56.2285ZM16.0813 47.2015L15.2499 48.7414C15.7582 49.0158 16.3692 49.0217 16.8828 48.7571C17.3963 48.4926 17.7462 47.9916 17.8178 47.4184L16.0813 47.2015ZM25.5986 47.0997L23.8671 47.3537C23.9479 47.9044 24.2859 48.3839 24.7774 48.6451C25.2689 48.9063 25.8554 48.9181 26.357 48.6768L25.5986 47.0997ZM27.703 56.2333L27.6939 54.4833C27.0133 54.4868 26.3964 54.8847 26.1125 55.5033C25.8286 56.122 25.9291 56.8491 26.3703 57.3675L27.703 56.2333ZM27.7044 56.2349L27.7044 57.9849C28.3867 57.9849 29.0068 57.5883 29.293 56.9689C29.5792 56.3495 29.4793 55.6203 29.0371 55.1007L27.7044 56.2349ZM14.0162 56.2349L12.4786 55.3992C12.1839 55.9414 12.1966 56.5989 12.512 57.1293C12.8275 57.6598 13.399 57.9849 14.0162 57.9849V56.2349ZM13.942 54.4803C13.896 54.4823 13.8496 54.4833 13.8028 54.4833V57.9833C13.9014 57.9833 13.9995 57.9811 14.0973 57.9768L13.942 54.4803ZM13.8028 54.4833C12.1168 54.4833 10.75 53.1165 10.75 51.4305H7.25C7.25 55.0495 10.1838 57.9833 13.8028 57.9833V54.4833ZM10.75 51.4305C10.75 49.7445 12.1168 48.3777 13.8028 48.3777V44.8777C10.1838 44.8777 7.25 47.8115 7.25 51.4305H10.75ZM13.8028 48.3777C14.33 48.3777 14.821 48.5098 15.2499 48.7414L16.9127 45.6616C15.9856 45.161 14.9247 44.8777 13.8028 44.8777V48.3777ZM17.8178 47.4184C18.0056 45.9145 19.2916 44.75 20.8468 44.75V41.25C17.5044 41.25 14.7487 43.751 14.3448 46.9845L17.8178 47.4184ZM20.8468 44.75C22.3795 44.75 23.6511 45.8811 23.8671 47.3537L27.33 46.8457C26.8656 43.6798 24.1415 41.25 20.8468 41.25V44.75ZM26.357 48.6768C26.7546 48.4856 27.201 48.3777 27.6776 48.3777V44.8777C26.6646 44.8777 25.7008 45.1087 24.8401 45.5226L26.357 48.6768ZM27.6776 48.3777C29.3636 48.3777 30.7304 49.7445 30.7304 51.4305H34.2304C34.2304 47.8115 31.2966 44.8777 27.6776 44.8777V48.3777ZM30.7304 51.4305C30.7304 53.1111 29.3723 54.4746 27.6939 54.4833L27.7121 57.9832C31.3153 57.9646 34.2304 55.038 34.2304 51.4305H30.7304ZM26.3703 57.3675L26.3716 57.3691L29.0371 55.1007L29.0357 55.0991L26.3703 57.3675ZM27.7044 54.4849H14.0162V57.9849H27.7044L27.7044 54.4849ZM15.5537 57.0706L15.5572 57.0642L12.482 55.3928L12.4786 55.3992L15.5537 57.0706Z" fill="#32A585"/>
<path fill-rule="evenodd" clip-rule="evenodd" d="M107.235 23.7029C107.117 23.7081 106.998 23.7108 106.879 23.7108C102.528 23.7108 99 20.1832 99 15.8317C99 11.4803 102.528 7.95269 106.879 7.95269C108.232 7.95269 109.505 8.29361 110.617 8.89421C111.102 5.00754 114.417 2 118.435 2C122.395 2 125.673 4.9216 126.231 8.72696C127.263 8.23072 128.419 7.95269 129.641 7.95269C133.992 7.95269 137.52 11.4803 137.52 15.8317C137.52 20.1692 134.015 23.688 129.683 23.7107L129.685 23.7126L107.229 23.7126L107.235 23.7029Z" fill="#58CEAD"/>
<path d="M107.235 23.7029L108.772 24.5386C109.074 23.9841 109.053 23.3104 108.719 22.7753C108.384 22.2402 107.787 21.9266 107.157 21.9546L107.235 23.7029ZM110.617 8.89421L109.786 10.4341C110.294 10.7086 110.905 10.7145 111.419 10.4498C111.932 10.1852 112.282 9.68407 112.354 9.11074L110.617 8.89421ZM126.231 8.72696L124.499 8.98065C124.58 9.53143 124.918 10.011 125.409 10.2722C125.901 10.5335 126.487 10.5453 126.989 10.3041L126.231 8.72696ZM129.683 23.7107L129.674 21.9607C128.993 21.9643 128.377 22.3621 128.093 22.9807C127.809 23.5993 127.909 24.3264 128.35 24.8447L129.683 23.7107ZM129.685 23.7126V25.4626C130.367 25.4626 130.987 25.0661 131.273 24.4467C131.56 23.8274 131.46 23.0982 131.018 22.5785L129.685 23.7126ZM107.229 23.7126L105.692 22.8769C105.397 23.4192 105.41 24.0766 105.725 24.607C106.041 25.1375 106.612 25.4626 107.229 25.4626V23.7126ZM107.157 21.9546C107.065 21.9587 106.972 21.9608 106.879 21.9608V25.4608C107.024 25.4608 107.169 25.4576 107.312 25.4512L107.157 21.9546ZM106.879 21.9608C103.494 21.9608 100.75 19.2167 100.75 15.8317H97.25C97.25 21.1497 101.561 25.4608 106.879 25.4608V21.9608ZM100.75 15.8317C100.75 12.4468 103.494 9.70269 106.879 9.70269V6.20269C101.561 6.20269 97.25 10.5138 97.25 15.8317H100.75ZM106.879 9.70269C107.934 9.70269 108.923 9.96797 109.786 10.4341L111.449 7.35435C110.087 6.61925 108.529 6.20269 106.879 6.20269V9.70269ZM112.354 9.11074C112.731 6.08913 115.311 3.75 118.435 3.75V0.25C113.524 0.25 109.473 3.92595 108.881 8.67767L112.354 9.11074ZM118.435 3.75C121.514 3.75 124.066 6.02209 124.499 8.98065L127.962 8.47327C127.281 3.82111 123.277 0.25 118.435 0.25V3.75ZM126.989 10.3041C127.79 9.9192 128.688 9.70269 129.641 9.70269V6.20269C128.151 6.20269 126.736 6.54225 125.472 7.14983L126.989 10.3041ZM129.641 9.70269C133.026 9.70269 135.77 12.4468 135.77 15.8317H139.27C139.27 10.5138 134.959 6.20269 129.641 6.20269V9.70269ZM135.77 15.8317C135.77 19.2057 133.044 21.943 129.674 21.9607L129.692 25.4607C134.987 25.4329 139.27 21.1326 139.27 15.8317H135.77ZM128.35 24.8447L128.352 24.8466L131.018 22.5785L131.016 22.5766L128.35 24.8447ZM129.685 21.9626L107.229 21.9626V25.4626L129.685 25.4626V21.9626ZM108.767 24.5482L108.772 24.5386L105.697 22.8673L105.692 22.8769L108.767 24.5482Z" fill="#32A585"/>
<path fill-rule="evenodd" clip-rule="evenodd" d="M13.7121 182.116C13.5425 182.123 13.3719 182.127 13.2005 182.127C6.94424 182.127 1.87256 177.056 1.87256 170.799C1.87256 164.543 6.94424 159.471 13.2005 159.471C15.1454 159.471 16.9758 159.962 18.575 160.825C19.2722 155.238 24.0388 150.914 29.8152 150.914C35.5084 150.914 40.2207 155.114 41.0227 160.585C42.5064 159.871 44.1694 159.471 45.9258 159.471C52.182 159.471 57.2537 164.543 57.2537 170.799C57.2537 177.035 52.215 182.094 45.9868 182.127L45.9893 182.13H13.7044L13.7121 182.116Z" fill="#58CEAD"/>
<path d="M13.7121 182.116L15.2497 182.952C15.551 182.397 15.5305 181.723 15.196 181.188C14.8615 180.653 14.2648 180.34 13.6344 180.368L13.7121 182.116ZM18.575 160.825L17.7435 162.365C18.2519 162.639 18.863 162.645 19.3766 162.381C19.8901 162.116 20.24 161.615 20.3116 161.042L18.575 160.825ZM41.0227 160.585L39.2912 160.838C39.372 161.389 39.7099 161.869 40.2014 162.13C40.693 162.391 41.2795 162.403 41.7811 162.162L41.0227 160.585ZM45.9868 182.127L45.9776 180.377C45.2971 180.381 44.6803 180.779 44.3964 181.397C44.1125 182.016 44.2129 182.743 44.6538 183.261L45.9868 182.127ZM45.9893 182.13V183.88C46.6715 183.88 47.2915 183.484 47.5778 182.864C47.864 182.245 47.7643 181.516 47.3223 180.996L45.9893 182.13ZM13.7044 182.13L12.1668 181.294C11.8721 181.837 11.8849 182.494 12.2003 183.024C12.5158 183.555 13.0873 183.88 13.7044 183.88V182.13ZM13.6344 180.368C13.4907 180.374 13.346 180.377 13.2005 180.377V183.877C13.3979 183.877 13.5943 183.873 13.7898 183.864L13.6344 180.368ZM13.2005 180.377C7.91074 180.377 3.62256 176.089 3.62256 170.799H0.122559C0.122559 178.022 5.97775 183.877 13.2005 183.877V180.377ZM3.62256 170.799C3.62256 165.51 7.91074 161.221 13.2005 161.221L13.2005 157.721C5.97775 157.721 0.122559 163.577 0.122559 170.799H3.62256ZM13.2005 161.221C14.848 161.221 16.3935 161.636 17.7435 162.365L19.4065 159.285C17.5582 158.287 15.4428 157.721 13.2005 157.721L13.2005 161.221ZM20.3116 161.042C20.9008 156.319 24.9325 152.664 29.8152 152.664V149.164C23.1451 149.164 17.6436 154.156 16.8385 160.608L20.3116 161.042ZM29.8152 152.664C34.6274 152.664 38.6133 156.215 39.2912 160.838L42.7542 160.331C41.8281 154.013 36.3895 149.164 29.8152 149.164V152.664ZM41.7811 162.162C43.0332 161.56 44.4375 161.221 45.9258 161.221V157.721C43.9012 157.721 41.9795 158.183 40.2643 159.007L41.7811 162.162ZM45.9258 161.221C51.2155 161.221 55.5037 165.51 55.5037 170.799H59.0037C59.0037 163.577 53.1485 157.721 45.9258 157.721V161.221ZM55.5037 170.799C55.5037 176.072 51.2434 180.349 45.9776 180.377L45.9961 183.877C53.1866 183.839 59.0037 177.999 59.0037 170.799H55.5037ZM44.6538 183.261L44.6562 183.264L47.3223 180.996L47.3199 180.993L44.6538 183.261ZM45.9893 180.38H13.7044V183.88H45.9893V180.38ZM15.2421 182.966L15.2497 182.952L12.1745 181.28L12.1668 181.294L15.2421 182.966Z" fill="#32A585"/>
<path fill-rule="evenodd" clip-rule="evenodd" d="M173.028 96.4239C172.661 96.4546 172.29 96.4703 171.916 96.4703C164.664 96.4703 158.786 90.5917 158.786 83.3401C158.786 76.0885 164.664 70.2099 171.916 70.2099C174.17 70.2099 176.291 70.7779 178.145 71.7786C178.953 65.3023 184.478 60.291 191.173 60.291C197.772 60.291 203.234 65.1593 204.164 71.5003C205.884 70.6733 207.811 70.2099 209.847 70.2099C217.099 70.2099 222.977 76.0885 222.977 83.3401C222.977 90.4497 217.327 96.2395 210.272 96.4636L210.367 96.5754H172.946L173.028 96.4239Z" fill="#58CEAD"/>
<path d="M173.028 96.4239L174.566 97.2595C174.873 96.6942 174.845 96.006 174.493 95.4673C174.142 94.9285 173.523 94.6262 172.882 94.68L173.028 96.4239ZM178.145 71.7786L177.313 73.3185C177.822 73.593 178.433 73.5989 178.946 73.3343C179.46 73.0696 179.81 72.5686 179.881 71.9953L178.145 71.7786ZM204.164 71.5003L202.432 71.7541C202.513 72.3049 202.851 72.7844 203.343 73.0456C203.834 73.3068 204.421 73.3186 204.922 73.0774L204.164 71.5003ZM210.272 96.4636L210.216 94.7144C209.544 94.7358 208.944 95.1401 208.672 95.7546C208.4 96.3692 208.503 97.0854 208.939 97.5974L210.272 96.4636ZM210.367 96.5754V98.3254C211.049 98.3254 211.669 97.929 211.955 97.3097C212.242 96.6904 212.142 95.9613 211.7 95.4416L210.367 96.5754ZM172.946 96.5754L171.408 95.7398C171.113 96.282 171.126 96.9394 171.441 97.4699C171.757 98.0004 172.328 98.3254 172.946 98.3254V96.5754ZM172.882 94.68C172.564 94.7067 172.242 94.7203 171.916 94.7203V98.2203C172.339 98.2203 172.759 98.2026 173.174 98.1677L172.882 94.68ZM171.916 94.7203C165.631 94.7203 160.536 89.6252 160.536 83.3401H157.036C157.036 91.5582 163.698 98.2203 171.916 98.2203V94.7203ZM160.536 83.3401C160.536 77.055 165.631 71.9599 171.916 71.9599V68.4599C163.698 68.4599 157.036 75.122 157.036 83.3401H160.536ZM171.916 71.9599C173.873 71.9599 175.709 72.4523 177.313 73.3185L178.976 70.2387C176.874 69.1035 174.467 68.4599 171.916 68.4599V71.9599ZM179.881 71.9953C180.582 66.384 185.372 62.041 191.173 62.041V58.541C183.584 58.541 177.325 64.2206 176.408 71.5619L179.881 71.9953ZM191.173 62.041C196.891 62.041 201.627 66.2598 202.432 71.7541L205.895 71.2464C204.842 64.0587 198.653 58.541 191.173 58.541V62.041ZM204.922 73.0774C206.411 72.3617 208.08 71.9599 209.847 71.9599V68.4599C207.543 68.4599 205.357 68.9848 203.406 69.9232L204.922 73.0774ZM209.847 71.9599C216.132 71.9599 221.227 77.055 221.227 83.3401H224.727C224.727 75.122 218.065 68.4599 209.847 68.4599V71.9599ZM221.227 83.3401C221.227 89.5018 216.33 94.5203 210.216 94.7144L210.327 98.2127C218.324 97.9587 224.727 91.3976 224.727 83.3401H221.227ZM208.939 97.5974L209.034 97.7093L211.7 95.4416L211.605 95.3297L208.939 97.5974ZM210.367 94.8254H172.946V98.3254H210.367V94.8254ZM174.483 97.4111L174.566 97.2595L171.49 95.5882L171.408 95.7398L174.483 97.4111Z" fill="#32A585"/>
</svg>
