<svg width="828" height="49" viewBox="0 0 828 49" fill="none" xmlns="http://www.w3.org/2000/svg">
<path d="M2 47C6.30287 29.8571 26.0961 2 70.846 2C115.596 2 139.692 32 142.919 47C147.939 32 168.951 2 212.841 2C256.73 2 274.874 32 278.46 47C283.48 32 304.492 2 348.381 2C392.271 2 410.414 32 414 47H278.46H142.919H2Z" fill="#E2F7F1"/>
<path d="M414 47C418.303 29.8571 438.096 2 482.846 2C527.596 2 551.692 32 554.919 47C559.939 32 580.951 2 624.841 2C668.73 2 686.874 32 690.46 47C695.48 32 716.492 2 760.381 2C804.271 2 822.414 32 826 47H690.46H554.919H414Z" fill="#E2F7F1"/>
<path fill-rule="evenodd" clip-rule="evenodd" d="M3.93981 47.4869C8.04081 31.1483 27.0981 4 70.8459 4C92.7496 4 109.533 11.3349 121.224 20.4521C132.984 29.6239 139.475 40.4987 140.964 47.4207C141.153 48.3015 141.908 48.9469 142.808 48.9969C143.708 49.0469 144.53 48.4892 144.816 47.6347C149.634 33.2362 170.017 4 212.841 4C255.602 4 273.093 33.1517 276.514 47.465C276.722 48.3331 277.48 48.9587 278.371 48.9981C279.263 49.0374 280.073 48.4812 280.356 47.6347C285.175 33.2362 305.558 4 348.381 4C391.103 4 408.601 33.0977 412.045 47.4252C412.065 47.5161 412.091 47.6051 412.123 47.6917C412.224 47.9656 412.38 48.2067 412.576 48.4049C412.773 48.6052 413.015 48.766 413.291 48.8702C413.473 48.9396 413.667 48.9827 413.866 48.996C413.955 49.002 414.045 49.002 414.136 48.9957C414.327 48.9827 414.514 48.9424 414.69 48.8774C415.244 48.6744 415.664 48.243 415.867 47.7186C415.901 47.6302 415.929 47.5393 415.95 47.4463C420.072 31.1035 439.134 4 482.846 4C504.75 4 521.533 11.3349 533.224 20.4521C544.984 29.6239 551.475 40.4987 552.964 47.4207C553.153 48.3015 553.908 48.9469 554.808 48.9969C555.708 49.0469 556.53 48.4892 556.816 47.6347C561.634 33.2362 582.017 4 624.841 4C667.602 4 685.093 33.1517 688.514 47.465C688.722 48.3331 689.479 48.9587 690.371 48.9981C691.263 49.0374 692.073 48.4812 692.356 47.6347C697.175 33.2362 717.558 4 760.381 4C803.142 4 820.633 33.1517 824.055 47.465C824.312 48.5393 825.391 49.202 826.465 48.9452C827.539 48.6884 828.202 47.6093 827.945 46.535C824.195 30.8483 805.399 0 760.381 0C720.05 0 698.483 24.7603 690.703 41.1194C684.398 24.6842 665.11 0 624.841 0C584.438 0 562.866 24.8487 555.121 41.2069C551.978 33.8166 545.445 24.9107 535.683 17.2979C523.332 7.66506 505.692 0 482.846 0C441.901 0 421.157 22.8791 414.021 40.5505C407.493 24.1209 388.189 0 348.381 0C308.05 0 286.483 24.7603 278.703 41.1194C272.398 24.6842 253.11 0 212.841 0C172.438 0 150.866 24.8487 143.121 41.2069C139.978 33.8166 133.445 24.9107 123.683 17.2979C111.332 7.66506 93.6922 0 70.8459 0C25.0941 0 4.56491 28.566 0.0601589 46.5131C-0.208748 47.5844 0.441751 48.6709 1.51309 48.9398C2.58442 49.2087 3.67091 48.5582 3.93981 47.4869Z" fill="#6A1221"/>
</svg>
