<svg width="342" height="308" viewBox="0 0 342 308" fill="none" xmlns="http://www.w3.org/2000/svg">
<path d="M213 154L339 154" stroke="#83A5FF" stroke-width="5" stroke-linecap="round"/>
<path d="M139.153 115L103.153 79.5" stroke="#83A5FF" stroke-width="5" stroke-linecap="round"/>
<path d="M137.153 192.719L98.9998 225.894" stroke="#83A5FF" stroke-width="5" stroke-linecap="round"/>
<mask id="path-4-outside-1_801_41" maskUnits="userSpaceOnUse" x="-2.77207e-07" y="0" width="115" height="100" fill="black">
<rect fill="white" x="-2.77207e-07" width="115" height="100"/>
<path fill-rule="evenodd" clip-rule="evenodd" d="M101.987 54.699C103.168 51.1311 103.8 47.3606 103.8 43.4612C103.8 21.1151 83.0261 3 57.4001 3C31.774 3 11 21.1151 11 43.4612C11 47.1444 11.5643 50.7126 12.6218 54.1036C7.08549 55.4197 3 60.0014 3 65.4514C3 71.9286 8.77056 77.1793 15.8889 77.1793C17.101 77.1793 18.274 77.0271 19.3862 76.7425C19.3797 76.8874 19.3765 77.033 19.3765 77.1792C19.3765 83.6564 25.758 88.9071 33.6301 88.9071C35.8965 88.9071 38.0393 88.4719 39.9419 87.6975C41.9086 92.7744 48.9279 96.5302 57.2854 96.5302C65.8996 96.5302 73.0921 92.5402 74.7957 87.226C76.9435 88.2931 79.4611 88.9071 82.153 88.9071C89.8612 88.9071 96.1403 83.8727 96.3984 77.582C97.1392 77.7025 97.902 77.7654 98.6809 77.7654C105.799 77.7654 111.57 72.5146 111.57 66.0375C111.57 60.6003 107.503 56.0273 101.987 54.699Z"/>
</mask>
<path fill-rule="evenodd" clip-rule="evenodd" d="M101.987 54.699C103.168 51.1311 103.8 47.3606 103.8 43.4612C103.8 21.1151 83.0261 3 57.4001 3C31.774 3 11 21.1151 11 43.4612C11 47.1444 11.5643 50.7126 12.6218 54.1036C7.08549 55.4197 3 60.0014 3 65.4514C3 71.9286 8.77056 77.1793 15.8889 77.1793C17.101 77.1793 18.274 77.0271 19.3862 76.7425C19.3797 76.8874 19.3765 77.033 19.3765 77.1792C19.3765 83.6564 25.758 88.9071 33.6301 88.9071C35.8965 88.9071 38.0393 88.4719 39.9419 87.6975C41.9086 92.7744 48.9279 96.5302 57.2854 96.5302C65.8996 96.5302 73.0921 92.5402 74.7957 87.226C76.9435 88.2931 79.4611 88.9071 82.153 88.9071C89.8612 88.9071 96.1403 83.8727 96.3984 77.582C97.1392 77.7025 97.902 77.7654 98.6809 77.7654C105.799 77.7654 111.57 72.5146 111.57 66.0375C111.57 60.6003 107.503 56.0273 101.987 54.699Z" fill="#C1D2FF"/>
<path d="M101.987 54.699L99.1389 53.7566L98.1147 56.8523L101.285 57.6156L101.987 54.699ZM12.6218 54.1036L13.3156 57.0223L16.4425 56.279L15.4858 53.2106L12.6218 54.1036ZM19.3862 76.7425L22.3832 76.8758L22.5631 72.8327L18.6424 73.8361L19.3862 76.7425ZM39.9419 87.6975L42.7394 86.6138L41.6371 83.7684L38.8109 84.9188L39.9419 87.6975ZM74.7957 87.226L76.1305 84.5393L73.0045 82.9862L71.9389 86.3102L74.7957 87.226ZM96.3984 77.582L96.8799 74.6209L93.5396 74.0778L93.4009 77.4591L96.3984 77.582ZM100.8 43.4612C100.8 47.0333 100.221 50.4859 99.1389 53.7566L104.835 55.6414C106.114 51.7763 106.8 47.6879 106.8 43.4612H100.8ZM57.4001 6C81.7683 6 100.8 23.1447 100.8 43.4612H106.8C106.8 19.0856 84.2839 0 57.4001 0L57.4001 6ZM14 43.4612C14 23.1447 33.0318 6 57.4001 6L57.4001 0C30.5162 0 8 19.0856 8 43.4612H14ZM15.4858 53.2106C14.5167 50.1028 14 46.8355 14 43.4612H8C8 47.4533 8.61203 51.3223 9.75777 54.9967L15.4858 53.2106ZM6 65.4514C6 61.5987 8.91822 58.0676 13.3156 57.0223L11.9279 51.185C5.25276 52.7718 -1.58335e-07 58.4042 -1.78474e-07 65.4514H6ZM15.8889 74.1793C10.1546 74.1793 6 70.0115 6 65.4514H-1.78474e-07C-2.02463e-07 73.8457 7.38649 80.1793 15.8889 80.1793L15.8889 74.1793ZM18.6424 73.8361C17.7725 74.0588 16.8493 74.1793 15.8889 74.1793L15.8889 80.1793C17.3527 80.1793 18.7756 79.9954 20.13 79.6488L18.6424 73.8361ZM22.3765 77.1792C22.3765 77.0775 22.3787 76.9763 22.3832 76.8758L16.3891 76.6091C16.3807 76.7984 16.3765 76.9885 16.3765 77.1792H22.3765ZM33.6301 85.9071C26.841 85.9071 22.3765 81.4787 22.3765 77.1792H16.3765C16.3765 85.834 24.675 91.9071 33.6301 91.9071L33.6301 85.9071ZM38.8109 84.9188C37.2717 85.5453 35.5133 85.9071 33.6301 85.9071L33.6301 91.9071C36.2796 91.9071 38.807 91.3984 41.0729 90.4761L38.8109 84.9188ZM57.2854 93.5302C53.5394 93.5302 50.1745 92.6857 47.5943 91.3525C44.9829 90.0031 43.3817 88.2719 42.7394 86.6138L37.1445 88.7811C38.4689 92.2 41.3606 94.8851 44.84 96.6829C48.3504 98.4968 52.6738 99.5302 57.2854 99.5302L57.2854 93.5302ZM71.9389 86.3102C71.3951 88.0064 69.8512 89.808 67.2103 91.2292C64.6028 92.6325 61.148 93.5302 57.2854 93.5302L57.2854 99.5302C62.0371 99.5302 66.4856 98.4329 70.0537 96.5127C73.5886 94.6103 76.4927 91.7598 77.6525 88.1418L71.9389 86.3102ZM82.153 85.9071C79.9152 85.9071 77.8555 85.3964 76.1305 84.5393L73.4609 89.9127C76.0315 91.1899 79.007 91.9071 82.153 91.9071L82.153 85.9071ZM93.4009 77.4591C93.2287 81.6578 88.7857 85.9071 82.153 85.9071L82.153 91.9071C90.9368 91.9071 99.052 86.0875 99.3959 77.705L93.4009 77.4591ZM98.6809 74.7654C98.0636 74.7654 97.4618 74.7156 96.8799 74.6209L95.9169 80.5431C96.8166 80.6894 97.7404 80.7654 98.6809 80.7654L98.6809 74.7654ZM108.57 66.0375C108.57 70.5975 104.415 74.7654 98.6809 74.7654L98.6809 80.7654C107.183 80.7654 114.57 74.4317 114.57 66.0375L108.57 66.0375ZM101.285 57.6156C105.666 58.6705 108.57 62.1936 108.57 66.0375L114.57 66.0375C114.57 59.007 109.341 53.3841 102.689 51.7824L101.285 57.6156Z" fill="#A7BFFF" mask="url(#path-4-outside-1_801_41)"/>
<mask id="path-6-outside-2_801_41" maskUnits="userSpaceOnUse" x="106" y="102" width="115" height="100" fill="black">
<rect fill="white" x="106" y="102" width="115" height="100"/>
<path fill-rule="evenodd" clip-rule="evenodd" d="M207.88 156.674C209.056 153.113 209.685 149.351 209.685 145.461C209.685 123.115 188.911 105 163.285 105C137.659 105 116.885 123.115 116.885 145.461C116.885 149.154 117.452 152.731 118.515 156.13C113.033 157.479 109 162.037 109 167.451C109 173.929 114.771 179.179 121.889 179.179C123.101 179.179 124.274 179.027 125.386 178.742C125.38 178.887 125.376 179.033 125.376 179.179C125.376 185.656 131.758 190.907 139.63 190.907C141.896 190.907 144.039 190.472 145.942 189.697C147.909 194.774 154.928 198.53 163.285 198.53C171.9 198.53 179.092 194.54 180.796 189.226C182.943 190.293 185.461 190.907 188.153 190.907C195.861 190.907 202.14 185.873 202.398 179.582C203.139 179.702 203.902 179.765 204.681 179.765C211.799 179.765 217.57 174.515 217.57 168.037C217.57 162.565 213.451 157.968 207.88 156.674Z"/>
</mask>
<path fill-rule="evenodd" clip-rule="evenodd" d="M207.88 156.674C209.056 153.113 209.685 149.351 209.685 145.461C209.685 123.115 188.911 105 163.285 105C137.659 105 116.885 123.115 116.885 145.461C116.885 149.154 117.452 152.731 118.515 156.13C113.033 157.479 109 162.037 109 167.451C109 173.929 114.771 179.179 121.889 179.179C123.101 179.179 124.274 179.027 125.386 178.742C125.38 178.887 125.376 179.033 125.376 179.179C125.376 185.656 131.758 190.907 139.63 190.907C141.896 190.907 144.039 190.472 145.942 189.697C147.909 194.774 154.928 198.53 163.285 198.53C171.9 198.53 179.092 194.54 180.796 189.226C182.943 190.293 185.461 190.907 188.153 190.907C195.861 190.907 202.14 185.873 202.398 179.582C203.139 179.702 203.902 179.765 204.681 179.765C211.799 179.765 217.57 174.515 217.57 168.037C217.57 162.565 213.451 157.968 207.88 156.674Z" fill="#C1D2FF"/>
<path d="M207.88 156.674L205.032 155.733L204.002 158.852L207.201 159.596L207.88 156.674ZM118.515 156.13L119.232 159.043L122.33 158.28L121.378 155.234L118.515 156.13ZM125.386 178.742L128.383 178.876L128.563 174.833L124.642 175.836L125.386 178.742ZM145.942 189.697L148.739 188.614L147.637 185.768L144.811 186.919L145.942 189.697ZM180.796 189.226L182.131 186.539L179.004 184.986L177.939 188.31L180.796 189.226ZM202.398 179.582L202.88 176.621L199.54 176.078L199.401 179.459L202.398 179.582ZM206.685 145.461C206.685 149.025 206.109 152.47 205.032 155.733L210.729 157.614C212.002 153.757 212.685 149.678 212.685 145.461H206.685ZM163.285 108C187.653 108 206.685 125.145 206.685 145.461H212.685C212.685 121.086 190.169 102 163.285 102L163.285 108ZM119.885 145.461C119.885 125.145 138.917 108 163.285 108L163.285 102C136.401 102 113.885 121.086 113.885 145.461H119.885ZM121.378 155.234C120.404 152.119 119.885 148.844 119.885 145.461H113.885C113.885 149.463 114.5 153.342 115.651 157.025L121.378 155.234ZM112 167.451C112 163.623 114.88 160.114 119.232 159.043L117.798 153.216C111.186 154.844 106 160.45 106 167.451H112ZM121.889 176.179C116.155 176.179 112 172.012 112 167.451H106C106 175.846 113.386 182.179 121.889 182.179L121.889 176.179ZM124.642 175.836C123.772 176.059 122.849 176.179 121.889 176.179L121.889 182.179C123.353 182.179 124.776 181.995 126.13 181.649L124.642 175.836ZM128.376 179.179C128.376 179.077 128.379 178.976 128.383 178.876L122.389 178.609C122.381 178.798 122.376 178.989 122.376 179.179H128.376ZM139.63 187.907C132.841 187.907 128.376 183.479 128.376 179.179H122.376C122.376 187.834 130.675 193.907 139.63 193.907L139.63 187.907ZM144.811 186.919C143.272 187.545 141.513 187.907 139.63 187.907L139.63 193.907C142.28 193.907 144.807 193.398 147.073 192.476L144.811 186.919ZM163.285 195.53C159.539 195.53 156.174 194.686 153.594 193.352C150.983 192.003 149.382 190.272 148.739 188.614L143.144 190.781C144.469 194.2 147.361 196.885 150.84 198.683C154.35 200.497 158.674 201.53 163.285 201.53L163.285 195.53ZM177.939 188.31C177.395 190.006 175.851 191.808 173.21 193.229C170.603 194.632 167.148 195.53 163.285 195.53L163.285 201.53C168.037 201.53 172.486 200.433 176.054 198.513C179.589 196.61 182.493 193.76 183.652 190.142L177.939 188.31ZM188.153 187.907C185.915 187.907 183.855 187.396 182.131 186.539L179.461 191.913C182.031 193.19 185.007 193.907 188.153 193.907L188.153 187.907ZM199.401 179.459C199.229 183.658 194.786 187.907 188.153 187.907L188.153 193.907C196.937 193.907 205.052 188.088 205.396 179.705L199.401 179.459ZM204.681 176.765C204.064 176.765 203.462 176.716 202.88 176.621L201.917 182.543C202.817 182.689 203.74 182.765 204.681 182.765L204.681 176.765ZM214.57 168.037C214.57 172.598 210.415 176.765 204.681 176.765L204.681 182.765C213.183 182.765 220.57 176.432 220.57 168.037L214.57 168.037ZM207.201 159.596C211.627 160.625 214.57 164.169 214.57 168.037L220.57 168.037C220.57 160.961 215.275 155.312 208.56 153.752L207.201 159.596Z" fill="#A7BFFF" mask="url(#path-6-outside-2_801_41)"/>
<mask id="path-8-outside-3_801_41" maskUnits="userSpaceOnUse" x="-2.77207e-07" y="208" width="115" height="100" fill="black">
<rect fill="white" x="-2.77207e-07" y="208" width="115" height="100"/>
<path fill-rule="evenodd" clip-rule="evenodd" d="M101.88 262.674C103.056 259.113 103.685 255.351 103.685 251.461C103.685 229.115 82.9111 211 57.285 211C31.659 211 10.885 229.115 10.885 251.461C10.885 255.154 11.4522 258.731 12.5148 262.13C7.03295 263.479 3 268.037 3 273.451C3 279.929 8.77056 285.179 15.8889 285.179C17.101 285.179 18.274 285.027 19.3862 284.742C19.3797 284.887 19.3765 285.033 19.3765 285.179C19.3765 291.656 25.758 296.907 33.6301 296.907C35.8965 296.907 38.0393 296.472 39.9419 295.697C41.9086 300.774 48.9279 304.53 57.2854 304.53C65.8996 304.53 73.0921 300.54 74.7957 295.226C76.9435 296.293 79.4611 296.907 82.153 296.907C89.8612 296.907 96.1403 291.873 96.3984 285.582C97.1392 285.702 97.902 285.765 98.6809 285.765C105.799 285.765 111.57 280.515 111.57 274.037C111.57 268.565 107.451 263.968 101.88 262.674Z"/>
</mask>
<path fill-rule="evenodd" clip-rule="evenodd" d="M101.88 262.674C103.056 259.113 103.685 255.351 103.685 251.461C103.685 229.115 82.9111 211 57.285 211C31.659 211 10.885 229.115 10.885 251.461C10.885 255.154 11.4522 258.731 12.5148 262.13C7.03295 263.479 3 268.037 3 273.451C3 279.929 8.77056 285.179 15.8889 285.179C17.101 285.179 18.274 285.027 19.3862 284.742C19.3797 284.887 19.3765 285.033 19.3765 285.179C19.3765 291.656 25.758 296.907 33.6301 296.907C35.8965 296.907 38.0393 296.472 39.9419 295.697C41.9086 300.774 48.9279 304.53 57.2854 304.53C65.8996 304.53 73.0921 300.54 74.7957 295.226C76.9435 296.293 79.4611 296.907 82.153 296.907C89.8612 296.907 96.1403 291.873 96.3984 285.582C97.1392 285.702 97.902 285.765 98.6809 285.765C105.799 285.765 111.57 280.515 111.57 274.037C111.57 268.565 107.451 263.968 101.88 262.674Z" fill="#C1D2FF"/>
<path d="M101.88 262.674L99.0315 261.733L98.0021 264.852L101.201 265.596L101.88 262.674ZM12.5148 262.13L13.2318 265.043L16.3303 264.28L15.3781 261.234L12.5148 262.13ZM19.3862 284.742L22.3832 284.876L22.5631 280.833L18.6424 281.836L19.3862 284.742ZM39.9419 295.697L42.7394 294.614L41.6371 291.768L38.8109 292.919L39.9419 295.697ZM74.7957 295.226L76.1305 292.539L73.0045 290.986L71.9389 294.31L74.7957 295.226ZM96.3984 285.582L96.8799 282.621L93.5396 282.078L93.4009 285.459L96.3984 285.582ZM100.685 251.461C100.685 255.025 100.109 258.47 99.0315 261.733L104.729 263.614C106.002 259.757 106.685 255.678 106.685 251.461H100.685ZM57.285 214C81.6533 214 100.685 231.145 100.685 251.461H106.685C106.685 227.086 84.1689 208 57.285 208L57.285 214ZM13.885 251.461C13.885 231.145 32.9168 214 57.285 214L57.285 208C30.4012 208 7.88496 227.086 7.88496 251.461H13.885ZM15.3781 261.234C14.4043 258.119 13.885 254.844 13.885 251.461H7.88496C7.88496 255.463 8.50011 259.342 9.65148 263.025L15.3781 261.234ZM6 273.451C6 269.623 8.87998 266.114 13.2318 265.043L11.7978 259.216C5.18592 260.844 -1.58466e-07 266.45 -1.78474e-07 273.451H6ZM15.8889 282.179C10.1546 282.179 6 278.012 6 273.451H-1.78474e-07C-2.02463e-07 281.846 7.38649 288.179 15.8889 288.179L15.8889 282.179ZM18.6424 281.836C17.7725 282.059 16.8493 282.179 15.8889 282.179L15.8889 288.179C17.3527 288.179 18.7756 287.995 20.13 287.649L18.6424 281.836ZM22.3765 285.179C22.3765 285.077 22.3787 284.976 22.3832 284.876L16.3891 284.609C16.3807 284.798 16.3765 284.989 16.3765 285.179H22.3765ZM33.6301 293.907C26.841 293.907 22.3765 289.479 22.3765 285.179H16.3765C16.3765 293.834 24.675 299.907 33.6301 299.907L33.6301 293.907ZM38.8109 292.919C37.2717 293.545 35.5133 293.907 33.6301 293.907L33.6301 299.907C36.2796 299.907 38.807 299.398 41.0729 298.476L38.8109 292.919ZM57.2854 301.53C53.5394 301.53 50.1745 300.686 47.5943 299.352C44.9829 298.003 43.3817 296.272 42.7394 294.614L37.1445 296.781C38.4689 300.2 41.3606 302.885 44.84 304.683C48.3504 306.497 52.6738 307.53 57.2854 307.53L57.2854 301.53ZM71.9389 294.31C71.3951 296.006 69.8512 297.808 67.2103 299.229C64.6028 300.632 61.148 301.53 57.2854 301.53L57.2854 307.53C62.0371 307.53 66.4856 306.433 70.0537 304.513C73.5886 302.61 76.4927 299.76 77.6525 296.142L71.9389 294.31ZM82.153 293.907C79.9152 293.907 77.8555 293.396 76.1305 292.539L73.4609 297.913C76.0315 299.19 79.007 299.907 82.153 299.907L82.153 293.907ZM93.4009 285.459C93.2287 289.658 88.7857 293.907 82.153 293.907L82.153 299.907C90.9368 299.907 99.052 294.088 99.3959 285.705L93.4009 285.459ZM98.6809 282.765C98.0636 282.765 97.4618 282.716 96.8799 282.621L95.9169 288.543C96.8166 288.689 97.7404 288.765 98.6809 288.765L98.6809 282.765ZM108.57 274.037C108.57 278.598 104.415 282.765 98.6809 282.765L98.6809 288.765C107.183 288.765 114.57 282.432 114.57 274.037H108.57ZM101.201 265.596C105.627 266.625 108.57 270.169 108.57 274.037H114.57C114.57 266.961 109.275 261.312 102.56 259.752L101.201 265.596Z" fill="#A7BFFF" mask="url(#path-8-outside-3_801_41)"/>
</svg>
