<svg width="828" height="50" viewBox="0 0 828 50" fill="none" xmlns="http://www.w3.org/2000/svg">
<path d="M2 47.5469C6.30287 30.404 26.0961 2.54688 70.846 2.54688C115.596 2.54688 139.692 32.5469 142.919 47.5469C147.939 32.5469 168.951 2.54688 212.841 2.54688C256.73 2.54688 274.874 32.5469 278.46 47.5469C283.48 32.5469 304.492 2.54688 348.381 2.54688C392.271 2.54688 410.414 32.5469 414 47.5469H278.46H142.919H2Z" fill="white"/>
<path d="M414 47.5469C418.303 30.404 438.096 2.54688 482.846 2.54688C527.596 2.54688 551.692 32.5469 554.919 47.5469C559.939 32.5469 580.951 2.54688 624.841 2.54688C668.73 2.54688 686.874 32.5469 690.46 47.5469C695.48 32.5469 716.492 2.54688 760.381 2.54688C804.271 2.54688 822.414 32.5469 826 47.5469H690.46H554.919H414Z" fill="white"/>
<path fill-rule="evenodd" clip-rule="evenodd" d="M3.93981 48.0338C8.04081 31.6952 27.0981 4.54688 70.8459 4.54688C92.7496 4.54688 109.533 11.8818 121.224 20.999C132.984 30.1708 139.475 41.0456 140.964 47.9675C141.153 48.8484 141.908 49.4938 142.808 49.5438C143.708 49.5938 144.53 49.0361 144.816 48.1816C149.634 33.7831 170.017 4.54688 212.841 4.54688C255.602 4.54688 273.093 33.6985 276.514 48.0119C276.722 48.88 277.48 49.5055 278.371 49.5449C279.263 49.5843 280.073 49.0281 280.356 48.1816C285.175 33.7831 305.558 4.54688 348.381 4.54688C391.103 4.54688 408.601 33.6446 412.045 47.9721C412.065 48.0629 412.091 48.152 412.123 48.2386C412.224 48.5125 412.38 48.7536 412.576 48.9518C412.773 49.1521 413.015 49.3129 413.291 49.4171C413.473 49.4865 413.667 49.5296 413.866 49.5429C413.955 49.5489 414.045 49.5489 414.136 49.5426C414.327 49.5296 414.514 49.4892 414.69 49.4243C415.244 49.2213 415.664 48.7898 415.867 48.2654C415.901 48.1771 415.929 48.0862 415.95 47.9932C420.072 31.6503 439.134 4.54688 482.846 4.54688C504.75 4.54688 521.533 11.8818 533.224 20.999C544.984 30.1708 551.475 41.0456 552.964 47.9675C553.153 48.8484 553.908 49.4938 554.808 49.5438C555.708 49.5938 556.53 49.0361 556.816 48.1816C561.634 33.7831 582.017 4.54688 624.841 4.54688C667.602 4.54688 685.093 33.6985 688.514 48.0119C688.722 48.88 689.479 49.5055 690.371 49.5449C691.263 49.5843 692.073 49.0281 692.356 48.1816C697.175 33.7831 717.558 4.54688 760.381 4.54688C803.142 4.54688 820.633 33.6985 824.055 48.0119C824.312 49.0862 825.391 49.7489 826.465 49.4921C827.539 49.2353 828.202 48.1562 827.945 47.0819C824.195 31.3952 805.399 0.546875 760.381 0.546875C720.05 0.546875 698.483 25.3072 690.703 41.6663C684.398 25.2311 665.11 0.546875 624.841 0.546875C584.438 0.546875 562.866 25.3956 555.121 41.7538C551.978 34.3635 545.445 25.4576 535.683 17.8448C523.332 8.21193 505.692 0.546875 482.846 0.546875C441.901 0.546875 421.157 23.426 414.021 41.0973C407.493 24.6678 388.189 0.546875 348.381 0.546875C308.05 0.546875 286.483 25.3072 278.703 41.6663C272.398 25.2311 253.11 0.546875 212.841 0.546875C172.438 0.546875 150.866 25.3956 143.121 41.7538C139.978 34.3635 133.445 25.4576 123.683 17.8448C111.332 8.21193 93.6922 0.546875 70.8459 0.546875C25.0941 0.546875 4.56491 29.1128 0.0601589 47.06C-0.208748 48.1313 0.441751 49.2178 1.51309 49.4867C2.58443 49.7556 3.67091 49.1051 3.93981 48.0338Z" fill="#6A1221"/>
</svg>
