<svg width="25" height="29" viewBox="0 0 25 29" fill="none" xmlns="http://www.w3.org/2000/svg">
<path d="M14.1406 21.9297L8.57422 21.9297L7.40234 29L3.02734 29L4.19922 21.9297L0.292969 21.9297L1.03516 17.5938L4.90234 17.5938L5.80078 12.125L1.93359 12.125L2.63672 7.75L6.52344 7.75L7.67578 0.71875L12.0508 0.71875L10.8984 7.75L16.4453 7.75L17.5977 0.71875L21.9727 0.71875L20.8203 7.75L24.707 7.75L23.9648 12.125L20.0977 12.125L19.1992 17.5938L23.1055 17.5938L22.3633 21.9297L18.4961 21.9297L17.3242 29L12.9883 29L14.1406 21.9297ZM14.8437 17.5938L15.7422 12.125L10.1758 12.125L9.27734 17.5938L14.8437 17.5938Z" fill="#6A1221"/>
</svg>
