<svg width="195" height="24" viewBox="0 0 195 24" fill="none" xmlns="http://www.w3.org/2000/svg">
<path d="M1.5 22.5469C3.5 14.5469 12.7 1.54688 33.5 1.54688C54.3 1.54688 65.5 15.5469 67 22.5469C69.3333 15.5469 79.1 1.54688 99.5 1.54688C119.9 1.54688 128.333 15.5469 130 22.5469C132.333 15.5469 142.1 1.54688 162.5 1.54688C182.9 1.54688 191.333 15.5469 193 22.5469H130H67H1.5Z" fill="#FFF0D6"/>
<path d="M1.5 22.5469C3.5 14.5469 12.7 1.54688 33.5 1.54688C54.3 1.54688 65.5 15.5469 67 22.5469C69.3333 15.5469 79.1 1.54688 99.5 1.54688C119.9 1.54688 128.333 15.5469 130 22.5469C132.333 15.5469 142.1 1.54688 162.5 1.54688C182.9 1.54688 191.333 15.5469 193 22.5469" stroke="#6A1221" stroke-width="2.5" stroke-linecap="round" stroke-linejoin="round"/>
</svg>
