<svg width="54" height="54" viewBox="0 0 54 54" fill="none" xmlns="http://www.w3.org/2000/svg">
<circle cx="27" cy="27" r="27" fill="#E2F7F1"/>
<g clip-path="url(#clip0_240_221)">
<path d="M27.5 14.7912C31.6414 14.7912 32.1318 14.8094 33.7605 14.882C35.2742 14.9486 36.0916 15.2029 36.6365 15.4148C37.357 15.6934 37.8777 16.0324 38.4166 16.5713C38.9615 17.1162 39.2945 17.6309 39.573 18.3514C39.785 18.8963 40.0393 19.7197 40.1059 21.2273C40.1785 22.8621 40.1967 23.3525 40.1967 27.4879C40.1967 31.6293 40.1785 32.1197 40.1059 33.7484C40.0393 35.2621 39.785 36.0795 39.573 36.6244C39.2945 37.3449 38.9555 37.8656 38.4166 38.4045C37.8717 38.9494 37.357 39.2824 36.6365 39.5609C36.0916 39.7729 35.2682 40.0271 33.7605 40.0938C32.1258 40.1664 31.6354 40.1846 27.5 40.1846C23.3586 40.1846 22.8682 40.1664 21.2395 40.0938C19.7258 40.0271 18.9084 39.7729 18.3635 39.5609C17.643 39.2824 17.1223 38.9434 16.5834 38.4045C16.0385 37.8596 15.7055 37.3449 15.427 36.6244C15.215 36.0795 14.9607 35.2561 14.8941 33.7484C14.8215 32.1137 14.8033 31.6232 14.8033 27.4879C14.8033 23.3465 14.8215 22.8561 14.8941 21.2273C14.9607 19.7137 15.215 18.8963 15.427 18.3514C15.7055 17.6309 16.0445 17.1102 16.5834 16.5713C17.1283 16.0264 17.643 15.6934 18.3635 15.4148C18.9084 15.2029 19.7318 14.9486 21.2395 14.882C22.8682 14.8094 23.3586 14.7912 27.5 14.7912ZM27.5 12C23.292 12 22.7652 12.0182 21.1123 12.0908C19.4654 12.1635 18.3332 12.4299 17.3523 12.8113C16.3291 13.2109 15.4633 13.7377 14.6035 14.6035C13.7377 15.4633 13.2109 16.3291 12.8113 17.3463C12.4299 18.3332 12.1635 19.4594 12.0908 21.1062C12.0182 22.7652 12 23.292 12 27.5C12 31.708 12.0182 32.2348 12.0908 33.8877C12.1635 35.5346 12.4299 36.6668 12.8113 37.6477C13.2109 38.6709 13.7377 39.5367 14.6035 40.3965C15.4633 41.2562 16.3291 41.7891 17.3463 42.1826C18.3332 42.5641 19.4594 42.8305 21.1062 42.9031C22.7592 42.9758 23.2859 42.9939 27.4939 42.9939C31.702 42.9939 32.2287 42.9758 33.8816 42.9031C35.5285 42.8305 36.6607 42.5641 37.6416 42.1826C38.6588 41.7891 39.5246 41.2562 40.3844 40.3965C41.2441 39.5367 41.777 38.6709 42.1705 37.6537C42.552 36.6668 42.8184 35.5406 42.891 33.8938C42.9637 32.2408 42.9818 31.7141 42.9818 27.5061C42.9818 23.298 42.9637 22.7713 42.891 21.1184C42.8184 19.4715 42.552 18.3393 42.1705 17.3584C41.7891 16.3291 41.2623 15.4633 40.3965 14.6035C39.5367 13.7437 38.6709 13.2109 37.6537 12.8174C36.6668 12.4359 35.5406 12.1695 33.8938 12.0969C32.2348 12.0182 31.708 12 27.5 12Z" fill="#489E89"/>
<path d="M27.5 19.5391C23.1043 19.5391 19.5381 23.1053 19.5381 27.501C19.5381 31.8967 23.1043 35.4629 27.5 35.4629C31.8957 35.4629 35.4619 31.8967 35.4619 27.501C35.4619 23.1053 31.8957 19.5391 27.5 19.5391ZM27.5 32.6656C24.6482 32.6656 22.3354 30.3527 22.3354 27.501C22.3354 24.6492 24.6482 22.3363 27.5 22.3363C30.3518 22.3363 32.6646 24.6492 32.6646 27.501C32.6646 30.3527 30.3518 32.6656 27.5 32.6656Z" fill="#489E89"/>
<path d="M37.6355 19.224C37.6355 20.2533 36.8 21.0828 35.7768 21.0828C34.7475 21.0828 33.918 20.2473 33.918 19.224C33.918 18.1947 34.7535 17.3652 35.7768 17.3652C36.8 17.3652 37.6355 18.2008 37.6355 19.224Z" fill="#489E89"/>
</g>
<defs>
<clipPath id="clip0_240_221">
<rect width="31" height="31" fill="white" transform="translate(12 12)"/>
</clipPath>
</defs>
</svg>
