<svg width="381" height="120" viewBox="0 0 381 120" fill="none" xmlns="http://www.w3.org/2000/svg">
<mask id="path-1-inside-1_714_228" fill="white">
<path fill-rule="evenodd" clip-rule="evenodd" d="M30 0C13.4315 0 0 13.4315 0 30V90C0 106.569 13.4315 120 30 120H334C343.941 120 352.753 115.165 358.211 107.718L379.166 104.202C380.857 103.918 381.43 101.778 380.108 100.687L364 87.397V30C364 13.4315 350.569 0 334 0H30Z"/>
</mask>
<path fill-rule="evenodd" clip-rule="evenodd" d="M30 0C13.4315 0 0 13.4315 0 30V90C0 106.569 13.4315 120 30 120H334C343.941 120 352.753 115.165 358.211 107.718L379.166 104.202C380.857 103.918 381.43 101.778 380.108 100.687L364 87.397V30C364 13.4315 350.569 0 334 0H30Z" fill="#FFDBCD"/>
<path d="M358.211 107.718L357.55 103.773L355.946 104.042L354.985 105.353L358.211 107.718ZM379.166 104.202L378.504 100.257L378.504 100.257L379.166 104.202ZM380.108 100.687L377.562 103.772L377.562 103.772L380.108 100.687ZM364 87.397H360V89.2824L361.454 90.4823L364 87.397ZM4 30C4 15.6406 15.6406 4 30 4V-4C11.2223 -4 -4 11.2223 -4 30H4ZM4 90V30H-4V90H4ZM30 116C15.6406 116 4 104.359 4 90H-4C-4 108.778 11.2223 124 30 124V116ZM334 116H30V124H334V116ZM354.985 105.353C350.248 111.816 342.613 116 334 116V124C345.269 124 355.258 118.513 361.437 110.083L354.985 105.353ZM378.504 100.257L357.55 103.773L358.873 111.663L379.828 108.147L378.504 100.257ZM377.562 103.772C376.24 102.681 376.813 100.541 378.504 100.257L379.828 108.147C384.9 107.296 386.621 100.875 382.653 97.6015L377.562 103.772ZM361.454 90.4823L377.562 103.772L382.653 97.6016L366.546 84.3116L361.454 90.4823ZM360 30V87.397H368V30H360ZM334 4C348.359 4 360 15.6406 360 30H368C368 11.2223 352.778 -4 334 -4V4ZM30 4H334V-4H30V4Z" fill="#FFB5A2" mask="url(#path-1-inside-1_714_228)"/>
</svg>
