<svg width="828" height="49" viewBox="0 0 828 49" fill="none" xmlns="http://www.w3.org/2000/svg">
<path d="M2.00049 47C6.30336 29.8571 26.0966 2 70.8464 2C115.596 2 139.692 32 142.92 47C147.94 32 168.952 2 212.841 2C256.731 2 274.874 32 278.46 47C283.48 32 304.492 2 348.382 2C392.271 2 410.415 32 414 47H278.46H142.92H2.00049Z" fill="#FFE9E0"/>
<path d="M414 47C418.303 29.8571 438.097 2 482.846 2C527.596 2 551.692 32 554.92 47C559.94 32 580.952 2 624.841 2C668.731 2 686.874 32 690.46 47C695.48 32 716.492 2 760.382 2C804.271 2 822.415 32 826 47H690.46H554.92H414Z" fill="#FFE9E0"/>
<path fill-rule="evenodd" clip-rule="evenodd" d="M3.9403 47.4869C8.0413 31.1483 27.0986 4 70.8464 4C92.75 4 109.534 11.3349 121.224 20.4521C132.985 29.6239 139.475 40.4987 140.964 47.4207C141.154 48.3015 141.909 48.9469 142.809 48.9969C143.708 49.0469 144.53 48.4892 144.816 47.6347C149.635 33.2362 170.018 4 212.841 4C255.602 4 273.093 33.1517 276.515 47.465C276.722 48.3331 277.48 48.9587 278.372 48.9981C279.263 49.0374 280.073 48.4812 280.357 47.6347C285.175 33.2362 305.558 4 348.382 4C391.103 4 408.601 33.0977 412.046 47.4252C412.066 47.5161 412.092 47.6051 412.124 47.6917C412.224 47.9656 412.381 48.2067 412.577 48.4049C412.774 48.6052 413.016 48.766 413.291 48.8702C413.474 48.9396 413.667 48.9827 413.866 48.996C413.955 49.002 414.046 49.002 414.137 48.9957C414.328 48.9827 414.514 48.9424 414.691 48.8774C415.245 48.6744 415.665 48.243 415.867 47.7186C415.901 47.6302 415.929 47.5393 415.95 47.4463C420.073 31.1035 439.135 4 482.846 4C504.75 4 521.534 11.3349 533.224 20.4521C544.985 29.6239 551.475 40.4987 552.964 47.4207C553.154 48.3015 553.909 48.9469 554.809 48.9969C555.708 49.0469 556.53 48.4892 556.816 47.6347C561.635 33.2362 582.018 4 624.841 4C667.602 4 685.093 33.1517 688.515 47.465C688.722 48.3331 689.48 48.9587 690.372 48.9981C691.263 49.0374 692.073 48.4812 692.357 47.6347C697.175 33.2362 717.558 4 760.382 4C803.143 4 820.634 33.1517 824.055 47.465C824.312 48.5393 825.391 49.202 826.465 48.9452C827.54 48.6884 828.203 47.6093 827.946 46.535C824.196 30.8483 805.399 0 760.382 0C720.051 0 698.484 24.7603 690.703 41.1194C684.399 24.6842 665.111 0 624.841 0C584.438 0 562.866 24.8487 555.121 41.2069C551.979 33.8166 545.445 24.9107 535.684 17.2979C523.332 7.66506 505.693 0 482.846 0C441.901 0 421.157 22.8791 414.022 40.5505C407.494 24.1209 388.189 0 348.382 0C308.051 0 286.484 24.7603 278.703 41.1194C272.399 24.6842 253.111 0 212.841 0C172.438 0 150.866 24.8487 143.121 41.2069C139.979 33.8166 133.445 24.9107 123.684 17.2979C111.332 7.66506 93.6927 0 70.8464 0C25.0946 0 4.5654 28.566 0.0606472 46.5131C-0.208259 47.5844 0.442239 48.6709 1.51358 48.9398C2.58491 49.2087 3.6714 48.5582 3.9403 47.4869Z" fill="#6A1221"/>
</svg>
