<svg width="70" height="71" viewBox="0 0 70 71" fill="none" xmlns="http://www.w3.org/2000/svg">
<path d="M68 35.5C68 54.0284 53.1987 69 35 69C16.8013 69 2 54.0284 2 35.5C2 16.9716 16.8013 2 35 2C53.1987 2 68 16.9716 68 35.5Z" fill="#8BDCC5" stroke="#66BDA4" stroke-width="4"/>
<path d="M34.083 17.12C36.323 17.12 38.3096 17.5333 40.043 18.36C41.7763 19.1867 43.123 20.3467 44.083 21.84C45.043 23.3067 45.523 25 45.523 26.92C45.523 28.12 45.2563 29.2267 44.723 30.24C44.2163 31.2533 43.5363 32.08 42.683 32.72C41.8563 33.36 40.9763 33.76 40.043 33.92C41.083 34.08 42.083 34.48 43.043 35.12C44.0296 35.76 44.8296 36.6 45.443 37.64C46.083 38.68 46.403 39.8667 46.403 41.2C46.403 43.2533 45.8696 45.0533 44.803 46.6C43.7363 48.12 42.283 49.2933 40.443 50.12C38.6296 50.9733 36.5896 51.4 34.323 51.4C30.7763 51.4 27.9363 50.48 25.803 48.64C23.6696 46.8 22.4696 44.2933 22.203 41.12H29.363C29.4963 42.4533 29.9763 43.48 30.803 44.2C31.6563 44.92 32.8296 45.28 34.323 45.28C35.8163 45.28 37.0163 44.9067 37.923 44.16C38.8563 43.4133 39.323 42.44 39.323 41.24C39.323 39.9067 38.803 38.88 37.763 38.16C36.7496 37.44 35.3763 37.08 33.643 37.08H30.403V31.16H33.643C35.1096 31.16 36.2563 30.8 37.083 30.08C37.9363 29.3333 38.363 28.3333 38.363 27.08C38.363 25.88 37.9763 24.9333 37.203 24.24C36.4563 23.5467 35.403 23.2 34.043 23.2C32.7096 23.2 31.683 23.6533 30.963 24.56C30.243 25.4667 29.883 26.5467 29.883 27.8H22.723C22.723 25.7467 23.203 23.92 24.163 22.32C25.123 20.6933 26.4696 19.4267 28.203 18.52C29.9363 17.5867 31.8963 17.12 34.083 17.12Z" fill="white"/>
</svg>
