<svg width="70" height="71" viewBox="0 0 70 71" fill="none" xmlns="http://www.w3.org/2000/svg">
<path d="M68 35.5C68 54.0284 53.1987 69 35 69C16.8013 69 2 54.0284 2 35.5C2 16.9716 16.8013 2 35 2C53.1987 2 68 16.9716 68 35.5Z" fill="#8BDCC5" stroke="#66BDA4" stroke-width="4"/>
<path d="M34.0402 18.12C36.4402 18.12 38.5068 18.56 40.2402 19.44C42.0002 20.32 43.3468 21.5333 44.2802 23.08C45.2135 24.6267 45.6802 26.3867 45.6802 28.36C45.6802 29.5333 45.4535 30.68 45.0002 31.8C44.5735 32.8933 43.8268 34.1467 42.7602 35.56C41.7202 36.9467 40.2402 38.6267 38.3202 40.6L33.6402 45.44H46.3202V51.6H23.0002V47.44L33.6802 36.44C35.5202 34.5467 36.7868 33 37.4802 31.8C38.1735 30.5733 38.5202 29.4533 38.5202 28.44C38.5202 27.1867 38.1468 26.2133 37.4002 25.52C36.6802 24.8 35.5602 24.44 34.0402 24.44C32.6268 24.44 31.5068 24.92 30.6802 25.88C29.8802 26.84 29.4802 27.9867 29.4802 29.32H22.3202C22.3202 27.2133 22.8135 25.3067 23.8002 23.6C24.8135 21.8933 26.2002 20.56 27.9602 19.6C29.7468 18.6133 31.7735 18.12 34.0402 18.12Z" fill="white"/>
</svg>
