<?xml version="1.0" encoding="utf-8"?>
<!-- Generator: Adobe Illustrator 26.2.1, SVG Export Plug-In . SVG Version: 6.00 Build 0)  -->
<svg version="1.1" id="Layer_1" xmlns="http://www.w3.org/2000/svg" xmlns:xlink="http://www.w3.org/1999/xlink" x="0px" y="0px"
	 viewBox="0 0 828 49" style="enable-background:new 0 0 828 49;" xml:space="preserve">
<style type="text/css">
	.st0{fill:#FFFFFF;}
	.st1{fill-rule:evenodd;clip-rule:evenodd;fill:#6A1221;}
</style>
<path class="st0" d="M1.9,48.9C6.2,30.8,26,1.5,70.8,1.5c44.8,0,68.8,31.6,72.1,47.5c5-15.8,26-47.5,69.9-47.5
	c43.9,0,62,31.6,65.6,47.5c5-15.8,26-47.5,69.9-47.5c43.9,0,62,31.6,65.6,47.5H278.4H142.8H1.9z"/>
<path class="st0" d="M414,49.5C418.3,31.4,438.1,2,482.8,2s68.8,31.6,72.1,47.5c5-15.8,26-47.5,69.9-47.5c43.9,0,62,31.6,65.6,47.5
	c5-15.8,26-47.5,69.9-47.5c43.9,0,62,31.6,65.6,47.5H690.5H554.9H414z"/>
<path class="st1" d="M3.9,49C3.9,48.9,4,48.8,4,48.7C8.1,32.3,27.2,5.2,70.9,5.2c21.9,0,38.7,7.3,50.4,16.5
	c11.8,9.2,18.3,20,19.7,27c0,0.2,0.1,0.3,0.2,0.4h3.6c0-0.1,0.1-0.1,0.1-0.2c4.8-14.4,25.2-43.6,68-43.6c42.8,0,60.3,29.2,63.7,43.5
	c0,0.1,0.1,0.3,0.2,0.4h3.6c0-0.1,0.1-0.1,0.1-0.2c4.8-14.4,25.2-43.6,68-43.6c42.7,0,60.2,29.1,63.7,43.4c0,0.1,0,0.2,0.1,0.3
	c0,0.1,0,0.1,0.1,0.1h3.6c0,0,0-0.1,0.1-0.1c0-0.1,0.1-0.2,0.1-0.3c4.1-16.3,23.2-43.4,66.9-43.4c21.9,0,38.7,7.3,50.4,16.5
	c11.8,9.2,18.3,20,19.7,27c0,0.2,0.1,0.3,0.2,0.4h3.6c0-0.1,0.1-0.1,0.1-0.2c4.8-14.4,25.2-43.6,68-43.6c42.8,0,60.3,29.2,63.7,43.5
	c0,0.1,0.1,0.3,0.2,0.4h3.6c0-0.1,0.1-0.1,0.1-0.2c4.8-14.4,25.2-43.6,68-43.6c42.8,0,60.3,29.2,63.7,43.5c0,0.1,0.1,0.3,0.1,0.4
	h3.6c0.2-0.4,0.2-0.8,0.1-1.3C824.3,32,805.5,1.2,760.5,1.2c-40.3,0-61.9,24.8-69.7,41.1c-6.3-16.4-25.6-41.1-65.9-41.1
	c-40.4,0-62,24.8-69.7,41.2c-3.1-7.4-9.7-16.3-19.4-23.9c-12.4-9.6-30-17.3-52.8-17.3c-40.9,0-61.7,22.9-68.8,40.6
	c-6.5-16.4-25.8-40.6-65.6-40.6c-40.3,0-61.9,24.8-69.7,41.1c-6.3-16.4-25.6-41.1-65.9-41.1c-40.4,0-62,24.8-69.7,41.2
	c-3.1-7.4-9.7-16.3-19.4-23.9c-12.4-9.6-30-17.3-52.8-17.3C25.2,1.2,4.6,29.7,0.1,47.7C0,48.2,0.1,48.6,0.3,49H3.9z"/>
</svg>
