<?xml version="1.0" encoding="utf-8"?>
<!-- Generator: Adobe Illustrator 22.1.0, SVG Export Plug-In . SVG Version: 6.00 Build 0)  -->
<svg version="1.1" id="Layer_1" xmlns="http://www.w3.org/2000/svg" xmlns:xlink="http://www.w3.org/1999/xlink" x="0px" y="0px"
	 viewBox="0 0 25 36" style="enable-background:new 0 0 25 36;" xml:space="preserve">
<style type="text/css">
	.st0{fill:#6A1221;}
	.st1{fill:none;stroke:#6A1221;stroke-width:4;stroke-linecap:round;}
</style>
<path class="st0" d="M20.7,0.8H4c-1.7,0-3,1.3-3,3v19.5c0,1.7,1.3,3,3,3h16.7c1.7,0,3-1.3,3-3V3.8C23.7,2.2,22.3,0.8,20.7,0.8z
	 M19.4,21.1c0,0.6-0.4,1-1,1H6.3c-0.6,0-1-0.4-1-1v-15c0-0.6,0.4-1,1-1h12.2c0.6,0,1,0.4,1,1V21.1z"/>
<path class="st1" d="M12.3,26.3V32"/>
<path class="st1" d="M22.2,33.4H2.4"/>
</svg>
