<svg width="13" height="15" viewBox="0 0 13 15" fill="none" xmlns="http://www.w3.org/2000/svg">
<path d="M4.84491 1.54554C4.66531 0.961844 4.23046 0.579102 3.74689 0.579102H2.12036C1.5016 0.579102 1 1.23104 1 2.03545C1 8.87289 5.26373 14.4159 10.5232 14.4159C11.1419 14.4159 11.6434 13.7637 11.6434 12.9593L11.6437 10.8444C11.6437 10.2158 11.3493 9.65055 10.9004 9.41707L9.34143 8.6067C8.93812 8.39697 8.47893 8.49136 8.14524 8.85288L7.7429 9.28911C7.27302 9.79816 6.58166 9.75768 6.14916 9.19542L5.01624 7.72124C4.58374 7.15897 4.55178 6.2609 4.94335 5.65004L5.27884 5.12702C5.55692 4.69321 5.63017 4.09608 5.46885 3.57176L4.84491 1.54554Z" fill="#6A1221" stroke="#6A1221" stroke-linecap="round" stroke-linejoin="round"/>
</svg>
