<svg width="19" height="20" viewBox="0 0 19 20" fill="none" xmlns="http://www.w3.org/2000/svg">
<rect x="4.52344" y="2.39453" width="9.04713" height="14.369" rx="2" fill="#6A1221" stroke="#6A1221" stroke-width="1.2"/>
<path d="M6.78516 2.39453V2.39453C6.78516 2.48418 6.78516 2.52901 6.78707 2.56688C6.82597 3.3357 7.44054 3.95027 8.20936 3.98917C8.24723 3.99108 8.29206 3.99108 8.38171 3.99108H9.71216C9.80182 3.99108 9.84664 3.99108 9.88452 3.98917C10.6533 3.95027 11.2679 3.3357 11.3068 2.56688C11.3087 2.52901 11.3087 2.48418 11.3087 2.39453V2.39453" stroke="#FFF1D8"/>
<mask id="path-3-inside-1_534_463" fill="white">
<ellipse cx="9.0469" cy="14.3686" rx="0.753927" ry="0.798276"/>
</mask>
<ellipse cx="9.0469" cy="14.3686" rx="0.753927" ry="0.798276" fill="white"/>
<path d="M8.80082 14.3686C8.80082 14.3314 8.81571 14.2859 8.85299 14.2464C8.8912 14.206 8.95985 14.1669 9.0469 14.1669V16.1669C10.0686 16.1669 10.8008 15.3071 10.8008 14.3686H8.80082ZM9.0469 14.1669C9.13394 14.1669 9.20259 14.206 9.2408 14.2464C9.27808 14.2859 9.29297 14.3314 9.29297 14.3686H7.29297C7.29297 15.3071 8.02515 16.1669 9.0469 16.1669V14.1669ZM9.29297 14.3686C9.29297 14.4058 9.27808 14.4513 9.2408 14.4907C9.20259 14.5312 9.13394 14.5703 9.0469 14.5703V12.5703C8.02515 12.5703 7.29297 13.43 7.29297 14.3686H9.29297ZM9.0469 14.5703C8.95985 14.5703 8.8912 14.5312 8.85299 14.4907C8.81571 14.4513 8.80082 14.4058 8.80082 14.3686H10.8008C10.8008 13.43 10.0686 12.5703 9.0469 12.5703V14.5703Z" fill="#FFF1D8" mask="url(#path-3-inside-1_534_463)"/>
</svg>
