<svg width="47" height="48" viewBox="0 0 47 48" fill="none" xmlns="http://www.w3.org/2000/svg">
<path d="M23.8902 8.35645C16.6468 8.35645 9.81227 11.5041 5.149 16.8394C4.44505 17.6446 4.53836 18.8683 5.32873 19.5856C6.11871 20.3023 7.31912 20.2085 8.02307 19.4024C11.9602 14.898 17.7414 12.2622 23.8902 12.2622C30.0204 12.2622 35.6827 14.8701 39.6378 19.4024C40.341 20.2085 41.5414 20.3023 42.3321 19.5856C43.1229 18.8689 43.2152 17.6452 42.5119 16.8394C37.8335 11.4781 31.1208 8.35645 23.8902 8.35645ZM23.8902 16.168C18.8319 16.168 14.151 18.3941 10.8971 22.2103C10.203 23.0246 10.2781 24.2491 11.0769 24.956C11.8755 25.663 13.077 25.5868 13.7712 24.7724C16.3048 21.8021 19.9531 20.0738 23.8902 20.0738C27.7578 20.0738 31.3595 21.7709 33.8897 24.6514C34.5955 25.454 35.7956 25.4931 36.584 24.7724C37.3725 24.0538 37.4698 22.8293 36.7637 22.0267C33.5139 18.3273 28.8591 16.168 23.8902 16.168ZM23.8902 23.9796C21.0755 23.9796 18.4525 25.2099 16.6453 27.3366C15.9522 28.1509 16.025 29.3754 16.825 30.0824C17.6246 30.7893 18.8263 30.7151 19.5193 29.8988C20.6061 28.6216 22.1989 27.8854 23.8902 27.8854C25.5443 27.8854 27.0567 28.6079 28.1415 29.8382C28.8491 30.6409 30.1091 30.6819 30.8958 29.9593C31.6828 29.2387 31.7232 28.0162 31.0156 27.2136C29.2113 25.1689 26.6426 23.9796 23.8902 23.9796Z" fill="#6A1221"/>
<ellipse cx="23.8362" cy="35.0983" rx="3.06567" ry="3.12463" fill="#6A1221"/>
</svg>
