<svg width="352" height="308" viewBox="0 0 352 308" fill="none" xmlns="http://www.w3.org/2000/svg">
<path d="M3 154L129 154" stroke="#51BDA0" stroke-width="5" stroke-linecap="round"/>
<path d="M213 118.5L253 79.5" stroke="#51BDA0" stroke-width="5" stroke-linecap="round"/>
<path d="M213.5 190L257.152 225.897" stroke="#51BDA0" stroke-width="5" stroke-linecap="round"/>
<mask id="path-4-outside-1_792_37" maskUnits="userSpaceOnUse" x="119" y="104" width="115" height="100" fill="black">
<rect fill="white" x="119" y="104" width="115" height="100"/>
<path fill-rule="evenodd" clip-rule="evenodd" d="M220.881 158.674C222.056 155.113 222.685 151.351 222.685 147.461C222.685 125.115 201.911 107 176.285 107C150.659 107 129.885 125.115 129.885 147.461C129.885 151.154 130.452 154.731 131.515 158.129C126.033 159.479 122 164.036 122 169.451C122 175.928 127.771 181.179 134.889 181.179C136.101 181.179 137.274 181.027 138.386 180.742C138.38 180.887 138.376 181.033 138.376 181.179C138.376 187.656 144.758 192.907 152.63 192.907C154.896 192.907 157.039 192.472 158.942 191.697C160.909 196.774 167.928 200.53 176.285 200.53C184.9 200.53 192.092 196.54 193.796 191.226C195.943 192.293 198.461 192.907 201.153 192.907C208.861 192.907 215.14 187.873 215.398 181.582C216.139 181.702 216.902 181.765 217.681 181.765C224.799 181.765 230.57 176.515 230.57 170.037C230.57 164.565 226.451 159.969 220.881 158.674Z"/>
</mask>
<path fill-rule="evenodd" clip-rule="evenodd" d="M220.881 158.674C222.056 155.113 222.685 151.351 222.685 147.461C222.685 125.115 201.911 107 176.285 107C150.659 107 129.885 125.115 129.885 147.461C129.885 151.154 130.452 154.731 131.515 158.129C126.033 159.479 122 164.036 122 169.451C122 175.928 127.771 181.179 134.889 181.179C136.101 181.179 137.274 181.027 138.386 180.742C138.38 180.887 138.376 181.033 138.376 181.179C138.376 187.656 144.758 192.907 152.63 192.907C154.896 192.907 157.039 192.472 158.942 191.697C160.909 196.774 167.928 200.53 176.285 200.53C184.9 200.53 192.092 196.54 193.796 191.226C195.943 192.293 198.461 192.907 201.153 192.907C208.861 192.907 215.14 187.873 215.398 181.582C216.139 181.702 216.902 181.765 217.681 181.765C224.799 181.765 230.57 176.515 230.57 170.037C230.57 164.565 226.451 159.969 220.881 158.674Z" fill="#A3E5D3"/>
<path d="M220.881 158.674L218.032 157.733L217.002 160.852L220.201 161.596L220.881 158.674ZM131.515 158.129L132.232 161.042L135.33 160.28L134.378 157.234L131.515 158.129ZM134.889 181.179L134.889 184.179H134.889L134.889 181.179ZM138.386 180.742L141.383 180.876L141.563 176.833L137.642 177.836L138.386 180.742ZM152.63 192.907L152.63 195.907H152.63L152.63 192.907ZM158.942 191.697L161.739 190.614L160.637 187.768L157.811 188.919L158.942 191.697ZM193.796 191.226L195.131 188.539L192.005 186.986L190.939 190.31L193.796 191.226ZM215.398 181.582L215.88 178.621L212.54 178.078L212.401 181.459L215.398 181.582ZM219.685 147.461C219.685 151.025 219.109 154.47 218.032 157.733L223.729 159.614C225.002 155.757 225.685 151.678 225.685 147.461H219.685ZM176.285 110C200.653 110 219.685 127.145 219.685 147.461H225.685C225.685 123.086 203.169 104 176.285 104L176.285 110ZM132.885 147.461C132.885 127.145 151.917 110 176.285 110L176.285 104C149.401 104 126.885 123.086 126.885 147.461H132.885ZM134.378 157.234C133.404 154.119 132.885 150.844 132.885 147.461H126.885C126.885 151.463 127.5 155.342 128.652 159.025L134.378 157.234ZM125 169.451C125 165.623 127.88 162.114 132.232 161.042L130.798 155.216C124.186 156.844 119 162.45 119 169.451H125ZM134.889 178.179C129.155 178.179 125 174.011 125 169.451H119C119 177.846 126.387 184.179 134.889 184.179L134.889 178.179ZM137.642 177.836C136.772 178.059 135.849 178.179 134.889 178.179L134.889 184.179C136.353 184.179 137.776 183.995 139.13 183.649L137.642 177.836ZM141.376 181.179C141.376 181.077 141.379 180.976 141.383 180.876L135.389 180.609C135.381 180.798 135.376 180.988 135.376 181.179H141.376ZM152.63 189.907C145.841 189.907 141.376 185.479 141.376 181.179H135.376C135.376 189.834 143.675 195.907 152.63 195.907L152.63 189.907ZM157.811 188.919C156.272 189.545 154.513 189.907 152.63 189.907L152.63 195.907C155.28 195.907 157.807 195.398 160.073 194.476L157.811 188.919ZM176.285 197.53C172.539 197.53 169.174 196.686 166.594 195.352C163.983 194.003 162.382 192.272 161.739 190.614L156.144 192.781C157.469 196.2 160.361 198.885 163.84 200.683C167.35 202.497 171.674 203.53 176.285 203.53L176.285 197.53ZM190.939 190.31C190.395 192.006 188.851 193.808 186.21 195.229C183.603 196.632 180.148 197.53 176.285 197.53L176.285 203.53C181.037 203.53 185.486 202.433 189.054 200.512C192.589 198.61 195.493 195.76 196.653 192.142L190.939 190.31ZM201.153 189.907C198.915 189.907 196.855 189.396 195.131 188.539L192.461 193.913C195.031 195.19 198.007 195.907 201.153 195.907L201.153 189.907ZM212.401 181.459C212.229 185.658 207.786 189.907 201.153 189.907L201.153 195.907C209.937 195.907 218.052 190.087 218.396 181.705L212.401 181.459ZM217.681 178.765C217.064 178.765 216.462 178.716 215.88 178.621L214.917 184.543C215.817 184.689 216.74 184.765 217.681 184.765L217.681 178.765ZM227.57 170.037C227.57 174.597 223.415 178.765 217.681 178.765L217.681 184.765C226.183 184.765 233.57 178.432 233.57 170.037L227.57 170.037ZM220.201 161.596C224.627 162.625 227.57 166.169 227.57 170.037L233.57 170.037C233.57 162.961 228.275 157.312 221.56 155.752L220.201 161.596Z" fill="#78D3BA" mask="url(#path-4-outside-1_792_37)"/>
<mask id="path-6-outside-2_792_37" maskUnits="userSpaceOnUse" x="237" y="0" width="115" height="100" fill="black">
<rect fill="white" x="237" width="115" height="100"/>
<path fill-rule="evenodd" clip-rule="evenodd" d="M338.881 54.6738C340.056 51.1133 340.685 47.3513 340.685 43.4612C340.685 21.1151 319.911 3 294.285 3C268.659 3 247.885 21.1151 247.885 43.4612C247.885 47.1536 248.452 50.7306 249.515 54.1294C244.033 55.4787 240 60.0365 240 65.4513C240 71.9285 245.771 77.1792 252.889 77.1792C254.101 77.1792 255.274 77.027 256.386 76.7423C256.38 76.8873 256.376 77.0329 256.376 77.1791C256.376 83.6562 262.758 88.907 270.63 88.907C272.896 88.907 275.039 88.4717 276.942 87.6973C278.909 92.7743 285.928 96.53 294.285 96.53C302.9 96.53 310.092 92.54 311.796 87.2259C313.943 88.293 316.461 88.907 319.153 88.907C326.861 88.907 333.14 83.8726 333.398 77.582C334.139 77.7025 334.902 77.7653 335.681 77.7653C342.799 77.7653 348.57 72.5146 348.57 66.0374C348.57 60.5653 344.451 55.9685 338.881 54.6738Z"/>
</mask>
<path fill-rule="evenodd" clip-rule="evenodd" d="M338.881 54.6738C340.056 51.1133 340.685 47.3513 340.685 43.4612C340.685 21.1151 319.911 3 294.285 3C268.659 3 247.885 21.1151 247.885 43.4612C247.885 47.1536 248.452 50.7306 249.515 54.1294C244.033 55.4787 240 60.0365 240 65.4513C240 71.9285 245.771 77.1792 252.889 77.1792C254.101 77.1792 255.274 77.027 256.386 76.7423C256.38 76.8873 256.376 77.0329 256.376 77.1791C256.376 83.6562 262.758 88.907 270.63 88.907C272.896 88.907 275.039 88.4717 276.942 87.6973C278.909 92.7743 285.928 96.53 294.285 96.53C302.9 96.53 310.092 92.54 311.796 87.2259C313.943 88.293 316.461 88.907 319.153 88.907C326.861 88.907 333.14 83.8726 333.398 77.582C334.139 77.7025 334.902 77.7653 335.681 77.7653C342.799 77.7653 348.57 72.5146 348.57 66.0374C348.57 60.5653 344.451 55.9685 338.881 54.6738Z" fill="#A3E5D3"/>
<path d="M338.881 54.6738L336.032 53.7335L335.002 56.8523L338.201 57.5959L338.881 54.6738ZM249.515 54.1294L250.232 57.0424L253.33 56.2798L252.378 53.2342L249.515 54.1294ZM252.889 77.1792L252.889 80.1792H252.889L252.889 77.1792ZM256.386 76.7423L259.383 76.8757L259.563 72.8326L255.642 73.836L256.386 76.7423ZM270.63 88.907L270.63 91.907H270.63L270.63 88.907ZM276.942 87.6973L279.739 86.6136L278.637 83.7683L275.811 84.9187L276.942 87.6973ZM311.796 87.2259L313.131 84.5392L310.005 82.9861L308.939 86.31L311.796 87.2259ZM333.398 77.582L333.88 74.6209L330.54 74.0778L330.401 77.459L333.398 77.582ZM337.685 43.4612C337.685 47.0248 337.109 50.4696 336.032 53.7335L341.729 55.6141C343.002 51.757 343.685 47.6779 343.685 43.4612H337.685ZM294.285 6C318.653 6 337.685 23.1446 337.685 43.4612H343.685C343.685 19.0855 321.169 0 294.285 0L294.285 6ZM250.885 43.4612C250.885 23.1446 269.917 6 294.285 6L294.285 0C267.401 0 244.885 19.0855 244.885 43.4612H250.885ZM252.378 53.2342C251.404 50.1193 250.885 46.8439 250.885 43.4612H244.885C244.885 47.4633 245.5 51.3419 246.652 55.0246L252.378 53.2342ZM243 65.4513C243 61.6229 245.88 58.1136 250.232 57.0424L248.798 51.2163C242.186 52.8438 237 58.45 237 65.4513H243ZM252.889 74.1792C247.155 74.1792 243 70.0114 243 65.4513H237C237 73.8455 244.387 80.1792 252.889 80.1792L252.889 74.1792ZM255.642 73.836C254.772 74.0586 253.849 74.1792 252.889 74.1792L252.889 80.1792C254.353 80.1792 255.776 79.9953 257.13 79.6487L255.642 73.836ZM259.376 77.1791C259.376 77.0773 259.379 76.9762 259.383 76.8757L253.389 76.609C253.381 76.7983 253.376 76.9884 253.376 77.1791H259.376ZM270.63 85.907C263.841 85.907 259.376 81.4785 259.376 77.1791H253.376C253.376 85.8339 261.675 91.907 270.63 91.907L270.63 85.907ZM275.811 84.9187C274.272 85.5452 272.513 85.907 270.63 85.907L270.63 91.907C273.28 91.907 275.807 91.3983 278.073 90.476L275.811 84.9187ZM294.285 93.53C290.539 93.53 287.174 92.6855 284.594 91.3523C281.983 90.003 280.382 88.2718 279.739 86.6136L274.144 88.781C275.469 92.1998 278.361 94.8849 281.84 96.6827C285.35 98.4966 289.674 99.53 294.285 99.53L294.285 93.53ZM308.939 86.31C308.395 88.0063 306.851 89.8078 304.21 91.229C301.603 92.6323 298.148 93.53 294.285 93.53L294.285 99.53C299.037 99.53 303.486 98.4327 307.054 96.5125C310.589 94.6102 313.493 91.7596 314.653 88.1417L308.939 86.31ZM319.153 85.907C316.915 85.907 314.855 85.3962 313.131 84.5392L310.461 89.9125C313.031 91.1897 316.007 91.907 319.153 91.907L319.153 85.907ZM330.401 77.459C330.229 81.6577 325.786 85.907 319.153 85.907L319.153 91.907C327.937 91.907 336.052 86.0875 336.396 77.705L330.401 77.459ZM335.681 74.7653C335.064 74.7653 334.462 74.7155 333.88 74.6209L332.917 80.5431C333.817 80.6894 334.74 80.7653 335.681 80.7653L335.681 74.7653ZM345.57 66.0374C345.57 70.5975 341.415 74.7653 335.681 74.7653L335.681 80.7653C344.183 80.7653 351.57 74.4317 351.57 66.0374L345.57 66.0374ZM338.201 57.5959C342.627 58.6246 345.57 62.1694 345.57 66.0374L351.57 66.0374C351.57 58.9613 346.275 53.3125 339.56 51.7517L338.201 57.5959Z" fill="#78D3BA" mask="url(#path-6-outside-2_792_37)"/>
<mask id="path-8-outside-3_792_37" maskUnits="userSpaceOnUse" x="237" y="208" width="115" height="100" fill="black">
<rect fill="white" x="237" y="208" width="115" height="100"/>
<path fill-rule="evenodd" clip-rule="evenodd" d="M338.881 262.674C340.056 259.113 340.685 255.351 340.685 251.461C340.685 229.115 319.911 211 294.285 211C268.659 211 247.885 229.115 247.885 251.461C247.885 255.154 248.452 258.731 249.515 262.129C244.033 263.479 240 268.036 240 273.451C240 279.928 245.771 285.179 252.889 285.179C254.101 285.179 255.274 285.027 256.386 284.742C256.38 284.887 256.376 285.033 256.376 285.179C256.376 291.656 262.758 296.907 270.63 296.907C272.896 296.907 275.039 296.472 276.942 295.697C278.909 300.774 285.928 304.53 294.285 304.53C302.9 304.53 310.092 300.54 311.796 295.226C313.943 296.293 316.461 296.907 319.153 296.907C326.861 296.907 333.14 291.873 333.398 285.582C334.139 285.702 334.902 285.765 335.681 285.765C342.799 285.765 348.57 280.515 348.57 274.037C348.57 268.565 344.451 263.969 338.881 262.674Z"/>
</mask>
<path fill-rule="evenodd" clip-rule="evenodd" d="M338.881 262.674C340.056 259.113 340.685 255.351 340.685 251.461C340.685 229.115 319.911 211 294.285 211C268.659 211 247.885 229.115 247.885 251.461C247.885 255.154 248.452 258.731 249.515 262.129C244.033 263.479 240 268.036 240 273.451C240 279.928 245.771 285.179 252.889 285.179C254.101 285.179 255.274 285.027 256.386 284.742C256.38 284.887 256.376 285.033 256.376 285.179C256.376 291.656 262.758 296.907 270.63 296.907C272.896 296.907 275.039 296.472 276.942 295.697C278.909 300.774 285.928 304.53 294.285 304.53C302.9 304.53 310.092 300.54 311.796 295.226C313.943 296.293 316.461 296.907 319.153 296.907C326.861 296.907 333.14 291.873 333.398 285.582C334.139 285.702 334.902 285.765 335.681 285.765C342.799 285.765 348.57 280.515 348.57 274.037C348.57 268.565 344.451 263.969 338.881 262.674Z" fill="#A3E5D3"/>
<path d="M338.881 262.674L336.032 261.733L335.002 264.852L338.201 265.596L338.881 262.674ZM249.515 262.129L250.232 265.042L253.33 264.28L252.378 261.234L249.515 262.129ZM252.889 285.179L252.889 288.179H252.889L252.889 285.179ZM256.386 284.742L259.383 284.876L259.563 280.833L255.642 281.836L256.386 284.742ZM270.63 296.907L270.63 299.907H270.63L270.63 296.907ZM276.942 295.697L279.739 294.614L278.637 291.768L275.811 292.919L276.942 295.697ZM311.796 295.226L313.131 292.539L310.005 290.986L308.939 294.31L311.796 295.226ZM333.398 285.582L333.88 282.621L330.54 282.078L330.401 285.459L333.398 285.582ZM337.685 251.461C337.685 255.025 337.109 258.47 336.032 261.733L341.729 263.614C343.002 259.757 343.685 255.678 343.685 251.461H337.685ZM294.285 214C318.653 214 337.685 231.145 337.685 251.461H343.685C343.685 227.086 321.169 208 294.285 208L294.285 214ZM250.885 251.461C250.885 231.145 269.917 214 294.285 214L294.285 208C267.401 208 244.885 227.086 244.885 251.461H250.885ZM252.378 261.234C251.404 258.119 250.885 254.844 250.885 251.461H244.885C244.885 255.463 245.5 259.342 246.652 263.025L252.378 261.234ZM243 273.451C243 269.623 245.88 266.114 250.232 265.042L248.798 259.216C242.186 260.844 237 266.45 237 273.451H243ZM252.889 282.179C247.155 282.179 243 278.011 243 273.451H237C237 281.846 244.387 288.179 252.889 288.179L252.889 282.179ZM255.642 281.836C254.772 282.059 253.849 282.179 252.889 282.179L252.889 288.179C254.353 288.179 255.776 287.995 257.13 287.649L255.642 281.836ZM259.376 285.179C259.376 285.077 259.379 284.976 259.383 284.876L253.389 284.609C253.381 284.798 253.376 284.988 253.376 285.179H259.376ZM270.63 293.907C263.841 293.907 259.376 289.479 259.376 285.179H253.376C253.376 293.834 261.675 299.907 270.63 299.907L270.63 293.907ZM275.811 292.919C274.272 293.545 272.513 293.907 270.63 293.907L270.63 299.907C273.28 299.907 275.807 299.398 278.073 298.476L275.811 292.919ZM294.285 301.53C290.539 301.53 287.174 300.686 284.594 299.352C281.983 298.003 280.382 296.272 279.739 294.614L274.144 296.781C275.469 300.2 278.361 302.885 281.84 304.683C285.35 306.497 289.674 307.53 294.285 307.53L294.285 301.53ZM308.939 294.31C308.395 296.006 306.851 297.808 304.21 299.229C301.603 300.632 298.148 301.53 294.285 301.53L294.285 307.53C299.037 307.53 303.486 306.433 307.054 304.512C310.589 302.61 313.493 299.76 314.653 296.142L308.939 294.31ZM319.153 293.907C316.915 293.907 314.855 293.396 313.131 292.539L310.461 297.913C313.031 299.19 316.007 299.907 319.153 299.907L319.153 293.907ZM330.401 285.459C330.229 289.658 325.786 293.907 319.153 293.907L319.153 299.907C327.937 299.907 336.052 294.087 336.396 285.705L330.401 285.459ZM335.681 282.765C335.064 282.765 334.462 282.716 333.88 282.621L332.917 288.543C333.817 288.689 334.74 288.765 335.681 288.765L335.681 282.765ZM345.57 274.037C345.57 278.597 341.415 282.765 335.681 282.765L335.681 288.765C344.183 288.765 351.57 282.432 351.57 274.037H345.57ZM338.201 265.596C342.627 266.625 345.57 270.169 345.57 274.037H351.57C351.57 266.961 346.275 261.312 339.56 259.752L338.201 265.596Z" fill="#78D3BA" mask="url(#path-8-outside-3_792_37)"/>
</svg>
