<?xml version="1.0" encoding="utf-8"?>
<!-- Generator: Adobe Illustrator 26.2.1, SVG Export Plug-In . SVG Version: 6.00 Build 0)  -->
<svg version="1.1" id="Layer_1" xmlns="http://www.w3.org/2000/svg" xmlns:xlink="http://www.w3.org/1999/xlink" x="0px" y="0px"
	 viewBox="0 0 375 150" style="enable-background:new 0 0 375 150;" xml:space="preserve">
<style type="text/css">
	.st0{fill-rule:evenodd;clip-rule:evenodd;fill:#FFFFFF;}
	.st1{fill:#FFFFFF;}
</style>
<path class="st0" d="M374.1,37.4C373.8,16.7,355.3,0,332.5,0c-15.7,0-29.4,8-36.5,19.7C288.9,8,275.2,0,259.5,0
	c-15.4,0-28.8,7.6-36,18.9C216.2,7.6,202.6,0,187,0s-29.2,7.6-36.5,18.9C143.4,7.6,129.9,0,114.5,0C98.8,0,85.1,8,78.1,19.7
	C71,8,57.3,0,41.6,0C18.7,0,0.2,16.7,0,37.4h0v0.4v49.9c0,34.2,27.8,62,62,62h250.1c34.2,0,62-27.8,62-62L374.1,37.4L374.1,37.4z"/>
<rect y="79.9" class="st1" width="375" height="70.1"/>
</svg>
