<svg width="71" height="60" viewBox="0 0 71 60" fill="none" xmlns="http://www.w3.org/2000/svg">
<path fill-rule="evenodd" clip-rule="evenodd" d="M64.6632 32.7351C65.4317 30.4796 65.8434 28.0964 65.8434 25.632C65.8434 11.4758 52.2581 0 35.4999 0C18.7416 0 5.15631 11.4758 5.15631 25.632C5.15631 27.9712 5.52726 30.2373 6.22219 32.3904C2.63734 33.2453 0 36.1325 0 39.5628C0 43.666 3.77369 46.9924 8.42876 46.9924C9.22138 46.9924 9.98843 46.8959 10.7157 46.7156C10.7114 46.8074 10.7093 46.8997 10.7093 46.9923C10.7093 51.0955 14.8826 54.4218 20.0305 54.4218C21.5127 54.4218 22.914 54.1461 24.1582 53.6555C25.4445 56.8717 30.0347 59.2508 35.5 59.2508C41.1333 59.2508 45.8368 56.7232 46.9509 53.3567C48.3555 54.0328 50.0021 54.4218 51.7627 54.4218C56.8035 54.4218 60.9098 51.2325 61.0785 47.2475C61.563 47.3238 62.0619 47.3636 62.5713 47.3636C67.2264 47.3636 71.0001 44.0373 71.0001 39.9341C71.0001 36.4673 68.3064 33.5552 64.6632 32.7351Z" fill="#A0BAFF"/>
</svg>
