<svg width="71" height="60" viewBox="0 0 71 60" fill="none" xmlns="http://www.w3.org/2000/svg">
<path fill-rule="evenodd" clip-rule="evenodd" d="M64.6632 33.073C65.4317 30.8175 65.8434 28.4343 65.8434 25.9699C65.8434 11.8137 52.2581 0.337891 35.4999 0.337891C18.7416 0.337891 5.15631 11.8137 5.15631 25.9699C5.15631 28.3091 5.52726 30.5752 6.22219 32.7283C2.63734 33.5831 0 36.4704 0 39.9007C0 44.0039 3.77369 47.3303 8.42876 47.3303C9.22138 47.3303 9.98843 47.2338 10.7157 47.0535C10.7114 47.1453 10.7093 47.2376 10.7093 47.3302C10.7093 51.4334 14.8826 54.7597 20.0305 54.7597C21.5127 54.7597 22.914 54.484 24.1582 53.9934C25.4445 57.2095 30.0347 59.5887 35.5 59.5887C41.1333 59.5887 45.8368 57.0611 46.9509 53.6946C48.3556 54.3707 50.0021 54.7597 51.7627 54.7597C56.8035 54.7597 60.9098 51.5704 61.0785 47.5854C61.563 47.6617 62.0619 47.7015 62.5713 47.7015C67.2264 47.7015 71.0001 44.3752 71.0001 40.2719C71.0001 36.8052 68.3064 33.893 64.6632 33.073Z" fill="#FFA38A"/>
</svg>
