<svg width="1199" height="873" viewBox="0 0 1199 873" fill="none" xmlns="http://www.w3.org/2000/svg">
<mask id="path-1-inside-1_510_119" fill="white">
<path fill-rule="evenodd" clip-rule="evenodd" d="M1198.97 70.2533C1197.89 31.2678 1166.31 0 1127.5 0C1098.23 0 1073.06 17.7954 1062 43.2749C1050.94 17.7954 1025.77 0 996.5 0C967.639 0 942.772 17.296 931.477 42.1992C920.104 17.296 895.063 0 866 0C835.561 0 809.534 18.9727 799 45.7869C788.466 18.9727 762.439 0 732 0C702.049 0 676.37 18.3685 665.519 44.5018C654.743 18.3685 629.242 0 599.5 0C569.272 0 543.426 18.9727 532.965 45.7869C522.359 18.9727 496.15 0 465.5 0C435.324 0 409.453 18.3902 398.538 44.548C387.773 18.3902 362.26 0 332.5 0C303.188 0 277.996 17.8402 266.958 43.3711C255.766 17.8402 230.222 0 200.5 0C172.047 0 147.422 16.3501 135.552 40.1455C123.846 16.3501 99.5609 0 71.5 0C32.6949 0 1.10998 31.2678 0.0286222 70.2533H0V72.3195V773C0 828.229 44.7715 873 100 873H1099C1154.23 873 1199 828.228 1199 773V72.3195V70.2533H1198.97Z"/>
</mask>
<path fill-rule="evenodd" clip-rule="evenodd" d="M1198.97 70.2533C1197.89 31.2678 1166.31 0 1127.5 0C1098.23 0 1073.06 17.7954 1062 43.2749C1050.94 17.7954 1025.77 0 996.5 0C967.639 0 942.772 17.296 931.477 42.1992C920.104 17.296 895.063 0 866 0C835.561 0 809.534 18.9727 799 45.7869C788.466 18.9727 762.439 0 732 0C702.049 0 676.37 18.3685 665.519 44.5018C654.743 18.3685 629.242 0 599.5 0C569.272 0 543.426 18.9727 532.965 45.7869C522.359 18.9727 496.15 0 465.5 0C435.324 0 409.453 18.3902 398.538 44.548C387.773 18.3902 362.26 0 332.5 0C303.188 0 277.996 17.8402 266.958 43.3711C255.766 17.8402 230.222 0 200.5 0C172.047 0 147.422 16.3501 135.552 40.1455C123.846 16.3501 99.5609 0 71.5 0C32.6949 0 1.10998 31.2678 0.0286222 70.2533H0V72.3195V773C0 828.229 44.7715 873 100 873H1099C1154.23 873 1199 828.228 1199 773V72.3195V70.2533H1198.97Z" fill="white"/>
<path d="M1198.97 70.2533L1192.97 70.4196C1193.06 73.6673 1195.72 76.2533 1198.97 76.2533V70.2533ZM1062 43.2749L1056.5 45.6639C1057.45 47.8564 1059.61 49.2749 1062 49.2749C1064.39 49.2749 1066.55 47.8564 1067.5 45.6639L1062 43.2749ZM931.477 42.1992L926.02 44.6918C926.997 46.8311 929.133 48.2023 931.485 48.1992C933.837 48.1961 935.97 46.8193 936.942 44.6774L931.477 42.1992ZM799 45.7869L793.415 47.9807C794.317 50.2769 796.533 51.7869 799 51.7869C801.467 51.7869 803.683 50.2769 804.585 47.9807L799 45.7869ZM665.519 44.5018L659.972 46.789C660.898 49.0333 663.084 50.4988 665.512 50.5018C667.939 50.5048 670.13 49.0447 671.06 46.8027L665.519 44.5018ZM532.965 45.7869L527.386 47.9939C528.293 50.2879 530.512 51.7927 532.979 51.7869C535.446 51.7811 537.658 50.2658 538.555 47.9675L532.965 45.7869ZM398.538 44.548L392.99 46.8314C393.913 49.0752 396.097 50.542 398.523 50.548C400.95 50.5539 403.141 49.0979 404.075 46.8586L398.538 44.548ZM266.958 43.3711L261.463 45.7801C262.422 47.9669 264.586 49.3772 266.974 49.3711C269.361 49.365 271.518 47.9438 272.466 45.7521L266.958 43.3711ZM135.552 40.1455L130.168 42.794C131.175 44.8405 133.255 46.1392 135.536 46.1455C137.816 46.1518 139.903 44.8646 140.921 42.8237L135.552 40.1455ZM0.0286222 70.2533V76.2533C3.27754 76.2533 5.93623 73.6673 6.02632 70.4196L0.0286222 70.2533ZM0 70.2533V64.2533C-3.31371 64.2533 -6 66.9396 -6 70.2533H0ZM1199 70.2533H1205C1205 66.9396 1202.31 64.2533 1199 64.2533V70.2533ZM1204.97 70.0869C1203.8 27.925 1169.62 -6 1127.5 -6V6C1162.99 6 1191.98 34.6107 1192.97 70.4196L1204.97 70.0869ZM1127.5 -6C1095.72 -6 1068.46 13.3214 1056.5 40.8859L1067.5 45.6639C1077.66 22.2694 1100.73 6 1127.5 6V-6ZM1067.5 40.8859C1055.54 13.3214 1028.28 -6 996.5 -6V6C1023.27 6 1046.34 22.2694 1056.5 45.6639L1067.5 40.8859ZM996.5 -6C965.169 -6 938.232 12.7798 926.013 39.721L936.942 44.6774C947.312 21.8122 970.108 6 996.5 6V-6ZM936.935 39.7066C924.627 12.7563 897.509 -6 866 -6V6C892.617 6 915.581 21.8356 926.02 44.6918L936.935 39.7066ZM866 -6C832.999 -6 804.816 14.5725 793.415 43.5931L804.585 47.9807C814.251 23.3729 838.123 6 866 6V-6ZM804.585 43.5931C793.184 14.5725 765.001 -6 732 -6V6C759.877 6 783.749 23.3729 793.415 47.9807L804.585 43.5931ZM732 -6C699.529 -6 671.722 13.9181 659.978 42.2009L671.06 46.8027C681.019 22.8189 704.57 6 732 6V-6ZM671.066 42.2146C659.409 13.9429 631.788 -6 599.5 -6V6C626.697 6 650.078 22.7941 659.972 46.789L671.066 42.2146ZM599.5 -6C566.685 -6 538.692 14.598 527.376 43.6063L538.555 47.9675C548.16 23.3474 571.859 6 599.5 6V-6ZM538.545 43.5799C527.06 14.5473 498.688 -6 465.5 -6V6C493.613 6 517.657 23.3981 527.386 47.9939L538.545 43.5799ZM465.5 -6C432.826 -6 404.819 13.9171 393.001 42.2374L404.075 46.8586C414.088 22.8632 437.822 6 465.5 6V-6ZM404.087 42.2646C392.441 13.9664 364.807 -6 332.5 -6V6C359.713 6 383.106 22.8139 392.99 46.8314L404.087 42.2646ZM332.5 -6C300.68 -6 273.392 13.37 261.451 40.9901L272.466 45.7521C282.6 22.3104 305.697 6 332.5 6V-6ZM272.453 40.9621C260.337 13.3222 232.682 -6 200.5 -6V6C227.761 6 251.195 22.3583 261.463 45.7801L272.453 40.9621ZM200.5 -6C169.691 -6 143.031 11.7098 130.183 37.4673L140.921 42.8237C151.812 20.9905 174.402 6 200.5 6V-6ZM140.936 37.497C128.272 11.7538 101.961 -6 71.5 -6V6C97.1606 6 119.421 20.9464 130.168 42.794L140.936 37.497ZM71.5 -6C29.3752 -6 -4.79961 27.925 -5.96907 70.0869L6.02632 70.4196C7.01956 34.6106 36.0145 6 71.5 6V-6ZM0 76.2533H0.0286222V64.2533H0V76.2533ZM6 72.3195V70.2533H-6V72.3195H6ZM6 773V72.3195H-6V773H6ZM100 867C48.0852 867 6 824.915 6 773H-6C-6 831.542 41.4578 879 100 879V867ZM1099 867H100V879H1099V867ZM1193 773C1193 824.915 1150.91 867 1099 867V879C1157.54 879 1205 831.542 1205 773H1193ZM1193 72.3195V773H1205V72.3195H1193ZM1193 70.2533V72.3195H1205V70.2533H1193ZM1198.97 76.2533H1199V64.2533H1198.97V76.2533Z" fill="#FF8D29" mask="url(#path-1-inside-1_510_119)"/>
</svg>
