<svg width="302" height="304" viewBox="0 0 302 304" fill="none" xmlns="http://www.w3.org/2000/svg">
<circle cx="151" cy="152.453" r="151" fill="#FFDCCD"/>
<mask id="mask0_178_225" style="mask-type:alpha" maskUnits="userSpaceOnUse" x="0" y="1" width="302" height="302">
<circle cx="151" cy="152" r="151" fill="#FFCFBB"/>
</mask>
<g mask="url(#mask0_178_225)">
<circle cx="235" cy="100" r="22" fill="#FFE58E" stroke="#FFCF68" stroke-width="4"/>
<path d="M95.5 67.5C57.4193 65.5166 63.7245 33.2105 70.8213 16.9067C70.9361 16.643 71.1572 16.4507 71.4316 16.3646L129.835 -1.94817C129.944 -1.98247 130.063 -1.99766 130.177 -1.9926C155.511 -0.872327 157.971 26.5093 145.5 30.5C106 39.5 140.5 69.8438 95.5 67.5Z" fill="#FFE58E"/>
<circle cx="195" cy="265" r="42" fill="#FFE58E" stroke="#FFCF68" stroke-width="4"/>
<path d="M95.5 67.5C57.4193 65.5166 63.7245 33.2105 70.8213 16.9067C70.9361 16.643 71.1572 16.4507 71.4316 16.3646L129.835 -1.94817C129.944 -1.98247 130.063 -1.99766 130.177 -1.9926C155.511 -0.872327 157.971 26.5093 145.5 30.5C106 39.5 140.5 69.8438 95.5 67.5Z" stroke="#FFCF68" stroke-width="4" stroke-linecap="round"/>
<path d="M135.5 128C135.5 133.357 132.044 137.5 128 137.5C123.956 137.5 120.5 133.357 120.5 128C120.5 122.643 123.956 118.5 128 118.5C132.044 118.5 135.5 122.643 135.5 128Z" fill="#FF8060" stroke="#FF8060"/>
<path d="M175.5 128C175.5 133.357 172.044 137.5 168 137.5C163.956 137.5 160.5 133.357 160.5 128C160.5 122.643 163.956 118.5 168 118.5C172.044 118.5 175.5 122.643 175.5 128Z" fill="#FF8060" stroke="#FF8060"/>
<path d="M136 160.5C141 163.167 153.2 166.6 162 159" stroke="#FF8060" stroke-width="4" stroke-linecap="round"/>
<path d="M161 153C161.167 155.5 162.8 161.1 168 163.5" stroke="#FF8060" stroke-width="4" stroke-linecap="round"/>
</g>
<path d="M7.5 193.453C16.1667 220.953 48.5 280.053 108.5 296.453" stroke="#FF8060" stroke-width="4" stroke-linecap="round"/>
<path d="M102.5 9.95368C125.833 1.62035 185.4 -6.44632 237 27.9537C253.5 38.9535 288.7 70.9531 297.5 110.953" stroke="#FF8060" stroke-width="4" stroke-linecap="round"/>
</svg>
