<svg width="88" height="78" viewBox="0 0 88 78" fill="none" xmlns="http://www.w3.org/2000/svg">
<path fill-rule="evenodd" clip-rule="evenodd" d="M2 22C2 10.9543 10.9543 2 22 2H66C77.0457 2 86 10.9543 86 22V43C86 54.0457 77.0457 63 66 63H55.5416C55.4718 63.1941 55.3802 63.3857 55.2654 63.5723L49.0294 73.7058C47.8767 75.5789 45.1671 75.6161 43.9635 73.7753L37.3377 63.6417C37.2017 63.4337 37.0954 63.2185 37.0168 63H22C10.9543 63 2 54.0457 2 43V22Z" fill="#FFA38A"/>
<path d="M55.5416 63V61H54.1352L53.6595 62.3235L55.5416 63ZM55.2654 63.5723L53.5621 62.5241L53.5621 62.5241L55.2654 63.5723ZM49.0294 73.7058L47.3261 72.6576H47.3261L49.0294 73.7058ZM43.9635 73.7753L45.6374 72.6808L43.9635 73.7753ZM37.3377 63.6417L35.6638 64.7362L35.6638 64.7362L37.3377 63.6417ZM37.0168 63L38.8989 62.3233L38.423 61H37.0168V63ZM22 0C9.84974 0 0 9.84974 0 22H4C4 12.0589 12.0589 4 22 4V0ZM66 0H22V4H66V0ZM88 22C88 9.84973 78.1503 0 66 0V4C75.9411 4 84 12.0589 84 22H88ZM88 43V22H84V43H88ZM66 65C78.1503 65 88 55.1503 88 43H84C84 52.9411 75.9411 61 66 61V65ZM55.5416 65H66V61H55.5416V65ZM53.6595 62.3235C53.6366 62.3871 53.6051 62.4542 53.5621 62.5241L56.9687 64.6205C57.1554 64.3172 57.307 64.0011 57.4237 63.6765L53.6595 62.3235ZM53.5621 62.5241L47.3261 72.6576L50.7327 74.754L56.9687 64.6205L53.5621 62.5241ZM47.3261 72.6576C46.9418 73.282 46.0386 73.2944 45.6374 72.6808L42.2896 74.8698C44.2955 77.9378 48.8116 77.8758 50.7327 74.754L47.3261 72.6576ZM45.6374 72.6808L39.0117 62.5472L35.6638 64.7362L42.2896 74.8698L45.6374 72.6808ZM39.0117 62.5473C38.9605 62.469 38.9243 62.394 38.8989 62.3233L35.1348 63.6767C35.2665 64.043 35.4428 64.3983 35.6638 64.7362L39.0117 62.5473ZM22 65H37.0168V61H22V65ZM0 43C0 55.1503 9.84973 65 22 65V61C12.0589 61 4 52.9411 4 43H0ZM0 22V43H4V22H0Z" fill="#FF8260"/>
<circle cx="24" cy="33" r="5" fill="white"/>
<circle cx="44" cy="33" r="5" fill="white"/>
<circle cx="64" cy="33" r="5" fill="white"/>
</svg>
