<svg width="195" height="24" viewBox="0 0 195 24" fill="none" xmlns="http://www.w3.org/2000/svg">
<path d="M2 22.5469C4 14.5469 13.2 1.54688 34 1.54688C54.8 1.54688 66 15.5469 67.5 22.5469C69.8333 15.5469 79.6 1.54688 100 1.54688C120.4 1.54688 128.833 15.5469 130.5 22.5469C132.833 15.5469 142.6 1.54688 163 1.54688C183.4 1.54688 191.833 15.5469 193.5 22.5469H130.5H67.5H2Z" fill="white"/>
<path d="M2 22.5469C4 14.5469 13.2 1.54688 34 1.54688C54.8 1.54688 66 15.5469 67.5 22.5469C69.8333 15.5469 79.6 1.54688 100 1.54688C120.4 1.54688 128.833 15.5469 130.5 22.5469C132.833 15.5469 142.6 1.54688 163 1.54688C183.4 1.54688 191.833 15.5469 193.5 22.5469" stroke="#6A1221" stroke-width="2.5" stroke-linecap="round" stroke-linejoin="round"/>
</svg>
