<svg width="338" height="305" viewBox="0 0 338 305" fill="none" xmlns="http://www.w3.org/2000/svg">
<path d="M3 152L129 152" stroke="#FF9375" stroke-width="5" stroke-linecap="round"/>
<path d="M203 113L239 77.5" stroke="#FF9375" stroke-width="5" stroke-linecap="round"/>
<path d="M205 190.719L243.153 223.894" stroke="#FF9375" stroke-width="5" stroke-linecap="round"/>
<mask id="path-4-outside-1_881_38" maskUnits="userSpaceOnUse" x="223" y="0" width="115" height="100" fill="black">
<rect fill="white" x="223" width="115" height="100"/>
<path fill-rule="evenodd" clip-rule="evenodd" d="M324.789 54.6727C325.963 51.1123 326.592 47.3503 326.592 43.4602C326.592 21.1146 305.837 3 280.235 3C254.633 3 233.878 21.1146 233.878 43.4602C233.878 47.1527 234.445 50.7297 235.506 54.1285C230.029 55.4777 226 60.0354 226 65.4502C226 71.9271 231.765 77.1777 238.877 77.1778C240.088 77.1778 241.26 77.0255 242.371 76.7409C242.365 76.8858 242.361 77.0315 242.361 77.1777C242.361 83.6547 248.737 88.9053 256.602 88.9053C258.866 88.9053 261.007 88.47 262.908 87.6956C264.873 92.7721 271.886 96.5274 280.235 96.5274C288.841 96.5274 296.027 92.5378 297.729 87.2242C299.875 88.2913 302.39 88.9053 305.08 88.9053C312.781 88.9053 319.054 83.8709 319.312 77.5804C320.052 77.7009 320.814 77.7638 321.593 77.7638C328.705 77.7638 334.47 72.5131 334.47 66.0362C334.47 60.5641 330.355 55.9673 324.789 54.6727Z"/>
</mask>
<path fill-rule="evenodd" clip-rule="evenodd" d="M324.789 54.6727C325.963 51.1123 326.592 47.3503 326.592 43.4602C326.592 21.1146 305.837 3 280.235 3C254.633 3 233.878 21.1146 233.878 43.4602C233.878 47.1527 234.445 50.7297 235.506 54.1285C230.029 55.4777 226 60.0354 226 65.4502C226 71.9271 231.765 77.1777 238.877 77.1778C240.088 77.1778 241.26 77.0255 242.371 76.7409C242.365 76.8858 242.361 77.0315 242.361 77.1777C242.361 83.6547 248.737 88.9053 256.602 88.9053C258.866 88.9053 261.007 88.47 262.908 87.6956C264.873 92.7721 271.886 96.5274 280.235 96.5274C288.841 96.5274 296.027 92.5378 297.729 87.2242C299.875 88.2913 302.39 88.9053 305.08 88.9053C312.781 88.9053 319.054 83.8709 319.312 77.5804C320.052 77.7009 320.814 77.7638 321.593 77.7638C328.705 77.7638 334.47 72.5131 334.47 66.0362C334.47 60.5641 330.355 55.9673 324.789 54.6727Z" fill="#FFC9B9"/>
<path d="M324.789 54.6727L321.94 53.7332L320.912 56.8509L324.109 57.5947L324.789 54.6727ZM235.506 54.1285L236.224 57.0414L239.321 56.2784L238.37 53.234L235.506 54.1285ZM238.877 77.1778L238.877 80.1778H238.877L238.877 77.1778ZM242.371 76.7409L245.368 76.8742L245.548 72.8303L241.627 73.8347L242.371 76.7409ZM256.602 88.9053L256.602 91.9053H256.602L256.602 88.9053ZM262.908 87.6956L265.706 86.6125L264.603 83.7654L261.776 84.9173L262.908 87.6956ZM297.729 87.2242L299.065 84.538L295.938 82.9828L294.872 86.3088L297.729 87.2242ZM319.312 77.5804L319.794 74.6193L316.453 74.0755L316.315 77.4576L319.312 77.5804ZM323.592 43.4602C323.592 47.0241 323.016 50.4691 321.94 53.7332L327.638 55.6122C328.91 51.7554 329.592 47.6766 329.592 43.4602H323.592ZM280.235 6C304.577 6 323.592 23.1418 323.592 43.4602H329.592C329.592 19.0874 307.098 0 280.235 0L280.235 6ZM236.878 43.4602C236.878 23.1418 255.893 6 280.235 6L280.235 0C253.372 0 230.878 19.0874 230.878 43.4602H236.878ZM238.37 53.234C237.397 50.1189 236.878 46.8433 236.878 43.4602H230.878C230.878 47.4621 231.492 51.3405 232.643 55.023L238.37 53.234ZM229 65.4502C229 61.6199 231.878 58.1119 236.224 57.0414L234.789 51.2156C228.18 52.8436 223 58.4509 223 65.4502H229ZM238.877 74.1778C233.152 74.1777 229 70.0125 229 65.4502H223C223 73.8418 230.379 80.1777 238.877 80.1778L238.877 74.1778ZM241.627 73.8347C240.758 74.0572 239.836 74.1778 238.877 74.1778L238.877 80.1778C240.34 80.1778 241.762 79.9938 243.115 79.6471L241.627 73.8347ZM245.361 77.1777C245.361 77.0759 245.364 76.9747 245.368 76.8742L239.374 76.6076C239.366 76.797 239.361 76.987 239.361 77.1777H245.361ZM256.602 85.9053C249.823 85.9053 245.361 81.4793 245.361 77.1777H239.361C239.361 85.8301 247.651 91.9053 256.602 91.9053L256.602 85.9053ZM261.776 84.9173C260.239 85.5436 258.483 85.9053 256.602 85.9053L256.602 91.9053C259.25 91.9053 261.775 91.3965 264.04 90.4739L261.776 84.9173ZM280.235 93.5274C276.494 93.5274 273.133 92.6832 270.556 91.3504C267.947 90.0016 266.348 88.2709 265.706 86.6125L260.11 88.7787C261.434 92.1968 264.323 94.8819 267.799 96.6799C271.307 98.4939 275.627 99.5274 280.235 99.5274L280.235 93.5274ZM294.872 86.3088C294.329 88.0054 292.786 89.8065 290.148 91.2271C287.544 92.63 284.093 93.5274 280.235 93.5274L280.235 99.5274C284.983 99.5274 289.428 98.43 292.994 96.5096C296.526 94.6071 299.427 91.7566 300.586 88.1395L294.872 86.3088ZM305.08 85.9053C302.845 85.9053 300.788 85.3947 299.065 84.538L296.393 89.9103C298.962 91.1878 301.936 91.9053 305.08 91.9053L305.08 85.9053ZM316.315 77.4576C316.142 81.6582 311.703 85.9053 305.08 85.9053L305.08 91.9053C313.859 91.9053 321.966 86.0836 322.31 77.7032L316.315 77.4576ZM321.593 74.7638C320.976 74.7638 320.375 74.714 319.794 74.6193L318.83 80.5414C319.729 80.6878 320.653 80.7638 321.593 80.7638L321.593 74.7638ZM331.47 66.0362C331.47 70.5985 327.318 74.7638 321.593 74.7638L321.593 80.7638C330.091 80.7638 337.47 74.4278 337.47 66.0362L331.47 66.0362ZM324.109 57.5947C328.529 58.6227 331.47 62.1662 331.47 66.0362L337.47 66.0362C337.47 58.9619 332.18 53.3119 325.469 51.7507L324.109 57.5947Z" fill="#FFB4A0" mask="url(#path-4-outside-1_881_38)"/>
<mask id="path-6-outside-2_881_38" maskUnits="userSpaceOnUse" x="115" y="102" width="115" height="100" fill="black">
<rect fill="white" x="115" y="102" width="115" height="100"/>
<path fill-rule="evenodd" clip-rule="evenodd" d="M216.789 156.673C217.963 153.112 218.592 149.35 218.592 145.46C218.592 123.115 197.837 105 172.235 105C146.633 105 125.878 123.115 125.878 145.46C125.878 149.153 126.445 152.73 127.506 156.128C122.029 157.478 118 162.035 118 167.45C118 173.927 123.765 179.178 130.877 179.178C132.088 179.178 133.26 179.026 134.371 178.741C134.365 178.886 134.361 179.031 134.361 179.178C134.361 185.655 140.737 190.905 148.602 190.905C150.866 190.905 153.007 190.47 154.908 189.696C156.873 194.772 163.886 198.527 172.235 198.527C180.841 198.527 188.027 194.538 189.729 189.224C191.875 190.291 194.391 190.905 197.08 190.905C204.781 190.905 211.055 185.871 211.313 179.58C212.053 179.701 212.815 179.764 213.593 179.764C220.705 179.764 226.47 174.513 226.47 168.036C226.47 162.564 222.355 157.967 216.789 156.673Z"/>
</mask>
<path fill-rule="evenodd" clip-rule="evenodd" d="M216.789 156.673C217.963 153.112 218.592 149.35 218.592 145.46C218.592 123.115 197.837 105 172.235 105C146.633 105 125.878 123.115 125.878 145.46C125.878 149.153 126.445 152.73 127.506 156.128C122.029 157.478 118 162.035 118 167.45C118 173.927 123.765 179.178 130.877 179.178C132.088 179.178 133.26 179.026 134.371 178.741C134.365 178.886 134.361 179.031 134.361 179.178C134.361 185.655 140.737 190.905 148.602 190.905C150.866 190.905 153.007 190.47 154.908 189.696C156.873 194.772 163.886 198.527 172.235 198.527C180.841 198.527 188.027 194.538 189.729 189.224C191.875 190.291 194.391 190.905 197.08 190.905C204.781 190.905 211.055 185.871 211.313 179.58C212.053 179.701 212.815 179.764 213.593 179.764C220.705 179.764 226.47 174.513 226.47 168.036C226.47 162.564 222.355 157.967 216.789 156.673Z" fill="#FFC9B9"/>
<path d="M216.789 156.673L213.94 155.733L212.912 158.851L216.109 159.595L216.789 156.673ZM127.506 156.128L128.224 159.041L131.321 158.278L130.37 155.234L127.506 156.128ZM130.877 179.178L130.877 182.178H130.877L130.877 179.178ZM134.371 178.741L137.368 178.874L137.548 174.83L133.627 175.835L134.371 178.741ZM148.602 190.905L148.602 193.905H148.602L148.602 190.905ZM154.908 189.696L157.706 188.613L156.603 185.765L153.776 186.917L154.908 189.696ZM189.729 189.224L191.065 186.538L187.938 184.982L186.872 188.309L189.729 189.224ZM211.313 179.58L211.794 176.619L208.454 176.076L208.315 179.458L211.313 179.58ZM215.592 145.46C215.592 149.024 215.016 152.469 213.94 155.733L219.638 157.612C220.91 153.755 221.592 149.677 221.592 145.46H215.592ZM172.235 108C196.577 108 215.592 125.142 215.592 145.46H221.592C221.592 121.087 199.098 102 172.235 102L172.235 108ZM128.878 145.46C128.878 125.142 147.893 108 172.235 108L172.235 102C145.372 102 122.878 121.087 122.878 145.46H128.878ZM130.37 155.234C129.397 152.119 128.878 148.843 128.878 145.46H122.878C122.878 149.462 123.492 153.34 124.643 157.023L130.37 155.234ZM121 167.45C121 163.62 123.878 160.112 128.224 159.041L126.789 153.216C120.18 154.844 115 160.451 115 167.45H121ZM130.877 176.178C125.152 176.178 121 172.012 121 167.45H115C115 175.842 122.379 182.178 130.877 182.178L130.877 176.178ZM133.627 175.835C132.758 176.057 131.836 176.178 130.877 176.178L130.877 182.178C132.34 182.178 133.762 181.994 135.115 181.647L133.627 175.835ZM137.361 179.178C137.361 179.076 137.364 178.975 137.368 178.874L131.374 178.608C131.366 178.797 131.361 178.987 131.361 179.178H137.361ZM148.602 187.905C141.823 187.905 137.361 183.479 137.361 179.178H131.361C131.361 187.83 139.651 193.905 148.602 193.905L148.602 187.905ZM153.776 186.917C152.239 187.544 150.483 187.905 148.602 187.905L148.602 193.905C151.25 193.905 153.775 193.396 156.04 192.474L153.776 186.917ZM172.235 195.527C168.494 195.527 165.133 194.683 162.556 193.35C159.947 192.002 158.348 190.271 157.706 188.613L152.11 190.779C153.434 194.197 156.323 196.882 159.799 198.68C163.307 200.494 167.627 201.527 172.235 201.527L172.235 195.527ZM186.872 188.309C186.329 190.005 184.786 191.806 182.148 193.227C179.544 194.63 176.093 195.527 172.235 195.527L172.235 201.527C176.983 201.527 181.428 200.43 184.994 198.51C188.526 196.607 191.427 193.756 192.586 190.139L186.872 188.309ZM197.08 187.905C194.845 187.905 192.788 187.395 191.065 186.538L188.393 191.91C190.962 193.188 193.936 193.905 197.08 193.905L197.08 187.905ZM208.315 179.458C208.143 183.658 203.703 187.905 197.08 187.905L197.08 193.905C205.86 193.905 213.967 188.084 214.31 179.703L208.315 179.458ZM213.593 176.764C212.976 176.764 212.375 176.714 211.794 176.619L210.831 182.541C211.73 182.688 212.653 182.764 213.593 182.764L213.593 176.764ZM223.47 168.036C223.47 172.598 219.318 176.764 213.593 176.764L213.593 182.764C222.091 182.764 229.47 176.428 229.47 168.036L223.47 168.036ZM216.109 159.595C220.529 160.623 223.47 164.166 223.47 168.036L229.47 168.036C229.47 160.962 224.18 155.312 217.469 153.751L216.109 159.595Z" fill="#FFB4A0" mask="url(#path-6-outside-2_881_38)"/>
<mask id="path-8-outside-3_881_38" maskUnits="userSpaceOnUse" x="223" y="205" width="115" height="100" fill="black">
<rect fill="white" x="223" y="205" width="115" height="100"/>
<path fill-rule="evenodd" clip-rule="evenodd" d="M324.789 259.673C325.963 256.112 326.592 252.35 326.592 248.46C326.592 226.115 305.837 208 280.235 208C254.633 208 233.878 226.115 233.878 248.46C233.878 252.152 234.444 255.729 235.506 259.128C230.029 260.477 226 265.035 226 270.449C226 276.926 231.765 282.177 238.877 282.177C240.088 282.177 241.26 282.025 242.371 281.74C242.365 281.885 242.361 282.031 242.361 282.177C242.361 288.654 248.737 293.905 256.602 293.905C258.866 293.905 261.007 293.469 262.908 292.695C264.872 297.772 271.885 301.528 280.235 301.528C288.842 301.528 296.027 297.538 297.729 292.224C299.875 293.291 302.39 293.905 305.08 293.905C312.781 293.905 319.054 288.871 319.312 282.58C320.052 282.701 320.814 282.764 321.593 282.764C328.705 282.764 334.47 277.513 334.47 271.036C334.47 265.564 330.355 260.967 324.789 259.673Z"/>
</mask>
<path fill-rule="evenodd" clip-rule="evenodd" d="M324.789 259.673C325.963 256.112 326.592 252.35 326.592 248.46C326.592 226.115 305.837 208 280.235 208C254.633 208 233.878 226.115 233.878 248.46C233.878 252.152 234.444 255.729 235.506 259.128C230.029 260.477 226 265.035 226 270.449C226 276.926 231.765 282.177 238.877 282.177C240.088 282.177 241.26 282.025 242.371 281.74C242.365 281.885 242.361 282.031 242.361 282.177C242.361 288.654 248.737 293.905 256.602 293.905C258.866 293.905 261.007 293.469 262.908 292.695C264.872 297.772 271.885 301.528 280.235 301.528C288.842 301.528 296.027 297.538 297.729 292.224C299.875 293.291 302.39 293.905 305.08 293.905C312.781 293.905 319.054 288.871 319.312 282.58C320.052 282.701 320.814 282.764 321.593 282.764C328.705 282.764 334.47 277.513 334.47 271.036C334.47 265.564 330.355 260.967 324.789 259.673Z" fill="#FFC9B9"/>
<path d="M324.789 259.673L321.94 258.733L320.912 261.851L324.109 262.595L324.789 259.673ZM235.506 259.128L236.224 262.041L239.32 261.278L238.37 258.233L235.506 259.128ZM238.877 282.177L238.877 285.177H238.877L238.877 282.177ZM242.371 281.74L245.368 281.873L245.548 277.83L241.627 278.834L242.371 281.74ZM256.602 293.905L256.602 296.905H256.602L256.602 293.905ZM262.908 292.695L265.705 291.612L264.603 288.765L261.776 289.917L262.908 292.695ZM297.729 292.224L299.065 289.537L295.938 287.982L294.872 291.309L297.729 292.224ZM319.312 282.58L319.794 279.619L316.453 279.076L316.315 282.457L319.312 282.58ZM323.592 248.46C323.592 252.024 323.016 255.469 321.94 258.733L327.638 260.612C328.91 256.755 329.592 252.677 329.592 248.46H323.592ZM280.235 211C304.577 211 323.592 228.142 323.592 248.46H329.592C329.592 224.087 307.098 205 280.235 205L280.235 211ZM236.878 248.46C236.878 228.142 255.893 211 280.235 211L280.235 205C253.372 205 230.878 224.087 230.878 248.46H236.878ZM238.37 258.233C237.397 255.118 236.878 251.843 236.878 248.46H230.878C230.878 252.462 231.492 256.34 232.642 260.022L238.37 258.233ZM229 270.449C229 266.619 231.878 263.111 236.224 262.041L234.788 256.215C228.18 257.843 223 263.45 223 270.449H229ZM238.877 279.177C233.152 279.177 229 275.012 229 270.449H223C223 278.841 230.379 285.177 238.877 285.177L238.877 279.177ZM241.627 278.834C240.758 279.057 239.836 279.177 238.877 279.177L238.877 285.177C240.34 285.177 241.762 284.993 243.115 284.646L241.627 278.834ZM245.361 282.177C245.361 282.075 245.364 281.974 245.368 281.873L239.374 281.607C239.366 281.796 239.361 281.986 239.361 282.177H245.361ZM256.602 290.905C249.823 290.905 245.361 286.479 245.361 282.177H239.361C239.361 290.829 247.651 296.905 256.602 296.905L256.602 290.905ZM261.776 289.917C260.239 290.543 258.483 290.905 256.602 290.905L256.602 296.905C259.25 296.905 261.775 296.396 264.04 295.473L261.776 289.917ZM280.235 298.528C276.493 298.528 273.132 297.683 270.555 296.351C267.947 295.002 266.347 293.271 265.705 291.612L260.11 293.778C261.433 297.196 264.322 299.882 267.799 301.68C271.307 303.494 275.627 304.528 280.235 304.528L280.235 298.528ZM294.872 291.309C294.329 293.005 292.786 294.806 290.149 296.227C287.544 297.63 284.093 298.528 280.235 298.528L280.235 304.528C284.983 304.528 289.429 303.43 292.994 301.51C296.527 299.607 299.428 296.756 300.586 293.139L294.872 291.309ZM305.08 290.905C302.845 290.905 300.788 290.394 299.065 289.537L296.394 294.91C298.962 296.187 301.936 296.905 305.08 296.905L305.08 290.905ZM316.315 282.457C316.142 286.658 311.703 290.905 305.08 290.905L305.08 296.905C313.859 296.905 321.966 291.083 322.309 282.703L316.315 282.457ZM321.593 279.764C320.976 279.764 320.375 279.714 319.794 279.619L318.83 285.541C319.729 285.688 320.653 285.764 321.593 285.764L321.593 279.764ZM331.47 271.036C331.47 275.598 327.318 279.764 321.593 279.764L321.593 285.764C330.091 285.764 337.47 279.428 337.47 271.036H331.47ZM324.109 262.595C328.529 263.623 331.47 267.166 331.47 271.036H337.47C337.47 263.962 332.18 258.312 325.469 256.751L324.109 262.595Z" fill="#FFB4A0" mask="url(#path-8-outside-3_881_38)"/>
</svg>
