<svg width="352" height="309" viewBox="0 0 352 309" fill="none" xmlns="http://www.w3.org/2000/svg">
<path d="M223 157L349 157" stroke="#FFB228" stroke-width="5" stroke-linecap="round"/>
<path d="M145.153 118L102.5 77" stroke="#FFB228" stroke-width="5" stroke-linecap="round"/>
<path d="M146.5 194.001L99.5001 233.001" stroke="#FFB228" stroke-width="5" stroke-linecap="round"/>
<mask id="path-4-outside-1_774_38" maskUnits="userSpaceOnUse" x="-2.77207e-07" y="0" width="115" height="100" fill="black">
<rect fill="white" x="-2.77207e-07" width="115" height="100"/>
<path fill-rule="evenodd" clip-rule="evenodd" d="M101.88 54.6737C103.056 51.1133 103.685 47.3514 103.685 43.4612C103.685 21.1151 82.9111 3 57.285 3C31.659 3 10.885 21.1151 10.885 43.4612C10.885 47.1537 11.4522 50.7307 12.5148 54.1295C7.03295 55.4789 3 60.0366 3 65.4514C3 71.9286 8.77056 77.1793 15.8889 77.1793C17.101 77.1793 18.274 77.0271 19.3862 76.7425C19.3797 76.8874 19.3765 77.033 19.3765 77.1792C19.3765 83.6564 25.758 88.9071 33.6301 88.9071C35.8965 88.9071 38.0393 88.4719 39.9419 87.6975C41.9086 92.7744 48.9279 96.5302 57.2854 96.5302C65.8996 96.5302 73.0921 92.5402 74.7957 87.226C76.9435 88.2931 79.4611 88.9071 82.153 88.9071C89.8612 88.9071 96.1403 83.8727 96.3984 77.582C97.1392 77.7025 97.902 77.7654 98.6809 77.7654C105.799 77.7654 111.57 72.5146 111.57 66.0375C111.57 60.5653 107.451 55.9685 101.88 54.6737Z"/>
</mask>
<path fill-rule="evenodd" clip-rule="evenodd" d="M101.88 54.6737C103.056 51.1133 103.685 47.3514 103.685 43.4612C103.685 21.1151 82.9111 3 57.285 3C31.659 3 10.885 21.1151 10.885 43.4612C10.885 47.1537 11.4522 50.7307 12.5148 54.1295C7.03295 55.4789 3 60.0366 3 65.4514C3 71.9286 8.77056 77.1793 15.8889 77.1793C17.101 77.1793 18.274 77.0271 19.3862 76.7425C19.3797 76.8874 19.3765 77.033 19.3765 77.1792C19.3765 83.6564 25.758 88.9071 33.6301 88.9071C35.8965 88.9071 38.0393 88.4719 39.9419 87.6975C41.9086 92.7744 48.9279 96.5302 57.2854 96.5302C65.8996 96.5302 73.0921 92.5402 74.7957 87.226C76.9435 88.2931 79.4611 88.9071 82.153 88.9071C89.8612 88.9071 96.1403 83.8727 96.3984 77.582C97.1392 77.7025 97.902 77.7654 98.6809 77.7654C105.799 77.7654 111.57 72.5146 111.57 66.0375C111.57 60.5653 107.451 55.9685 101.88 54.6737Z" fill="#FFE0B9"/>
<path d="M101.88 54.6737L99.0315 53.7335L98.0021 56.8523L101.201 57.5959L101.88 54.6737ZM12.5148 54.1295L13.2318 57.0425L16.3303 56.2799L15.3781 53.2343L12.5148 54.1295ZM19.3862 76.7425L22.3832 76.8758L22.5631 72.8327L18.6424 73.8361L19.3862 76.7425ZM39.9419 87.6975L42.7394 86.6138L41.6371 83.7684L38.8109 84.9188L39.9419 87.6975ZM74.7957 87.226L76.1305 84.5393L73.0045 82.9862L71.9389 86.3102L74.7957 87.226ZM96.3984 77.582L96.8799 74.6209L93.5396 74.0778L93.4009 77.4591L96.3984 77.582ZM100.685 43.4612C100.685 47.0248 100.109 50.4696 99.0315 53.7335L104.729 55.614C106.002 51.757 106.685 47.6779 106.685 43.4612H100.685ZM57.285 6C81.6533 6 100.685 23.1447 100.685 43.4612H106.685C106.685 19.0856 84.1689 0 57.285 0L57.285 6ZM13.885 43.4612C13.885 23.1447 32.9168 6 57.285 6L57.285 0C30.4012 0 7.88496 19.0856 7.88496 43.4612H13.885ZM15.3781 53.2343C14.4043 50.1194 13.885 46.844 13.885 43.4612H7.88496C7.88496 47.4634 8.50011 51.342 9.65147 55.0247L15.3781 53.2343ZM6 65.4514C6 61.623 8.87998 58.1138 13.2318 57.0425L11.7978 51.2165C5.18592 52.844 -1.58466e-07 58.4502 -1.78474e-07 65.4514H6ZM15.8889 74.1793C10.1546 74.1793 6 70.0115 6 65.4514H-1.78474e-07C-2.02463e-07 73.8457 7.38649 80.1793 15.8889 80.1793L15.8889 74.1793ZM18.6424 73.8361C17.7725 74.0588 16.8493 74.1793 15.8889 74.1793L15.8889 80.1793C17.3527 80.1793 18.7756 79.9954 20.13 79.6488L18.6424 73.8361ZM22.3765 77.1792C22.3765 77.0775 22.3787 76.9763 22.3832 76.8758L16.3891 76.6091C16.3807 76.7984 16.3765 76.9885 16.3765 77.1792H22.3765ZM33.6301 85.9071C26.841 85.9071 22.3765 81.4787 22.3765 77.1792H16.3765C16.3765 85.834 24.675 91.9071 33.6301 91.9071L33.6301 85.9071ZM38.8109 84.9188C37.2717 85.5453 35.5133 85.9071 33.6301 85.9071L33.6301 91.9071C36.2796 91.9071 38.807 91.3984 41.0729 90.4761L38.8109 84.9188ZM57.2854 93.5302C53.5394 93.5302 50.1745 92.6857 47.5943 91.3525C44.9829 90.0031 43.3817 88.2719 42.7394 86.6138L37.1445 88.7811C38.4689 92.2 41.3606 94.8851 44.84 96.6829C48.3504 98.4968 52.6738 99.5302 57.2854 99.5302L57.2854 93.5302ZM71.9389 86.3102C71.3951 88.0064 69.8512 89.808 67.2103 91.2292C64.6028 92.6325 61.148 93.5302 57.2854 93.5302L57.2854 99.5302C62.0371 99.5302 66.4856 98.4329 70.0537 96.5127C73.5886 94.6103 76.4927 91.7598 77.6525 88.1418L71.9389 86.3102ZM82.153 85.9071C79.9152 85.9071 77.8555 85.3964 76.1305 84.5393L73.4609 89.9127C76.0315 91.1899 79.007 91.9071 82.153 91.9071L82.153 85.9071ZM93.4009 77.4591C93.2287 81.6578 88.7857 85.9071 82.153 85.9071L82.153 91.9071C90.9368 91.9071 99.052 86.0875 99.3959 77.705L93.4009 77.4591ZM98.6809 74.7654C98.0636 74.7654 97.4618 74.7156 96.8799 74.6209L95.9169 80.5431C96.8166 80.6894 97.7404 80.7654 98.6809 80.7654L98.6809 74.7654ZM108.57 66.0375C108.57 70.5975 104.415 74.7654 98.6809 74.7654L98.6809 80.7654C107.183 80.7654 114.57 74.4317 114.57 66.0375L108.57 66.0375ZM101.201 57.5959C105.627 58.6246 108.57 62.1693 108.57 66.0375L114.57 66.0375C114.57 58.9612 109.275 53.3123 102.56 51.7516L101.201 57.5959Z" fill="#FFCF91" mask="url(#path-4-outside-1_774_38)"/>
<mask id="path-6-outside-2_774_38" maskUnits="userSpaceOnUse" x="121" y="104" width="115" height="100" fill="black">
<rect fill="white" x="121" y="104" width="115" height="100"/>
<path fill-rule="evenodd" clip-rule="evenodd" d="M222.88 158.674C224.056 155.113 224.685 151.351 224.685 147.461C224.685 125.115 203.911 107 178.285 107C152.659 107 131.885 125.115 131.885 147.461C131.885 151.154 132.452 154.731 133.515 158.13C128.033 159.479 124 164.037 124 169.451C124 175.929 129.771 181.179 136.889 181.179C138.101 181.179 139.274 181.027 140.386 180.742C140.38 180.887 140.376 181.033 140.376 181.179C140.376 187.656 146.758 192.907 154.63 192.907C156.896 192.907 159.039 192.472 160.942 191.697C162.909 196.774 169.928 200.53 178.285 200.53C186.9 200.53 194.092 196.54 195.796 191.226C197.943 192.293 200.461 192.907 203.153 192.907C210.861 192.907 217.14 187.873 217.398 181.582C218.139 181.702 218.902 181.765 219.681 181.765C226.799 181.765 232.57 176.515 232.57 170.037C232.57 164.565 228.451 159.968 222.88 158.674Z"/>
</mask>
<path fill-rule="evenodd" clip-rule="evenodd" d="M222.88 158.674C224.056 155.113 224.685 151.351 224.685 147.461C224.685 125.115 203.911 107 178.285 107C152.659 107 131.885 125.115 131.885 147.461C131.885 151.154 132.452 154.731 133.515 158.13C128.033 159.479 124 164.037 124 169.451C124 175.929 129.771 181.179 136.889 181.179C138.101 181.179 139.274 181.027 140.386 180.742C140.38 180.887 140.376 181.033 140.376 181.179C140.376 187.656 146.758 192.907 154.63 192.907C156.896 192.907 159.039 192.472 160.942 191.697C162.909 196.774 169.928 200.53 178.285 200.53C186.9 200.53 194.092 196.54 195.796 191.226C197.943 192.293 200.461 192.907 203.153 192.907C210.861 192.907 217.14 187.873 217.398 181.582C218.139 181.702 218.902 181.765 219.681 181.765C226.799 181.765 232.57 176.515 232.57 170.037C232.57 164.565 228.451 159.968 222.88 158.674Z" fill="#FFE0B9"/>
<path d="M222.88 158.674L220.032 157.733L219.002 160.852L222.201 161.596L222.88 158.674ZM133.515 158.13L134.232 161.043L137.33 160.28L136.378 157.234L133.515 158.13ZM140.386 180.742L143.383 180.876L143.563 176.833L139.642 177.836L140.386 180.742ZM160.942 191.697L163.739 190.614L162.637 187.768L159.811 188.919L160.942 191.697ZM195.796 191.226L197.131 188.539L194.004 186.986L192.939 190.31L195.796 191.226ZM217.398 181.582L217.88 178.621L214.54 178.078L214.401 181.459L217.398 181.582ZM221.685 147.461C221.685 151.025 221.109 154.47 220.032 157.733L225.729 159.614C227.002 155.757 227.685 151.678 227.685 147.461H221.685ZM178.285 110C202.653 110 221.685 127.145 221.685 147.461H227.685C227.685 123.086 205.169 104 178.285 104L178.285 110ZM134.885 147.461C134.885 127.145 153.917 110 178.285 110L178.285 104C151.401 104 128.885 123.086 128.885 147.461H134.885ZM136.378 157.234C135.404 154.119 134.885 150.844 134.885 147.461H128.885C128.885 151.463 129.5 155.342 130.651 159.025L136.378 157.234ZM127 169.451C127 165.623 129.88 162.114 134.232 161.043L132.798 155.216C126.186 156.844 121 162.45 121 169.451H127ZM136.889 178.179C131.155 178.179 127 174.012 127 169.451H121C121 177.846 128.386 184.179 136.889 184.179L136.889 178.179ZM139.642 177.836C138.772 178.059 137.849 178.179 136.889 178.179L136.889 184.179C138.353 184.179 139.776 183.995 141.13 183.649L139.642 177.836ZM143.376 181.179C143.376 181.077 143.379 180.976 143.383 180.876L137.389 180.609C137.381 180.798 137.376 180.989 137.376 181.179H143.376ZM154.63 189.907C147.841 189.907 143.376 185.479 143.376 181.179H137.376C137.376 189.834 145.675 195.907 154.63 195.907L154.63 189.907ZM159.811 188.919C158.272 189.545 156.513 189.907 154.63 189.907L154.63 195.907C157.28 195.907 159.807 195.398 162.073 194.476L159.811 188.919ZM178.285 197.53C174.539 197.53 171.174 196.686 168.594 195.352C165.983 194.003 164.382 192.272 163.739 190.614L158.144 192.781C159.469 196.2 162.361 198.885 165.84 200.683C169.35 202.497 173.674 203.53 178.285 203.53L178.285 197.53ZM192.939 190.31C192.395 192.006 190.851 193.808 188.21 195.229C185.603 196.632 182.148 197.53 178.285 197.53L178.285 203.53C183.037 203.53 187.486 202.433 191.054 200.513C194.589 198.61 197.493 195.76 198.652 192.142L192.939 190.31ZM203.153 189.907C200.915 189.907 198.855 189.396 197.131 188.539L194.461 193.913C197.031 195.19 200.007 195.907 203.153 195.907L203.153 189.907ZM214.401 181.459C214.229 185.658 209.786 189.907 203.153 189.907L203.153 195.907C211.937 195.907 220.052 190.088 220.396 181.705L214.401 181.459ZM219.681 178.765C219.064 178.765 218.462 178.716 217.88 178.621L216.917 184.543C217.817 184.689 218.74 184.765 219.681 184.765L219.681 178.765ZM229.57 170.037C229.57 174.598 225.415 178.765 219.681 178.765L219.681 184.765C228.183 184.765 235.57 178.432 235.57 170.037L229.57 170.037ZM222.201 161.596C226.627 162.625 229.57 166.169 229.57 170.037L235.57 170.037C235.57 162.961 230.275 157.312 223.56 155.752L222.201 161.596Z" fill="#FFCF91" mask="url(#path-6-outside-2_774_38)"/>
<mask id="path-8-outside-3_774_38" maskUnits="userSpaceOnUse" x="-2.77207e-07" y="209" width="115" height="100" fill="black">
<rect fill="white" x="-2.77207e-07" y="209" width="115" height="100"/>
<path fill-rule="evenodd" clip-rule="evenodd" d="M101.88 263.674C103.056 260.113 103.685 256.351 103.685 252.461C103.685 230.115 82.9111 212 57.285 212C31.659 212 10.885 230.115 10.885 252.461C10.885 256.154 11.4522 259.731 12.5148 263.13C7.03295 264.479 3 269.037 3 274.451C3 280.929 8.77056 286.179 15.8889 286.179C17.101 286.179 18.274 286.027 19.3862 285.742C19.3797 285.887 19.3765 286.033 19.3765 286.179C19.3765 292.656 25.758 297.907 33.6301 297.907C35.8965 297.907 38.0393 297.472 39.9419 296.697C41.9086 301.774 48.9279 305.53 57.2854 305.53C65.8996 305.53 73.0921 301.54 74.7957 296.226C76.9435 297.293 79.4611 297.907 82.153 297.907C89.8612 297.907 96.1403 292.873 96.3984 286.582C97.1392 286.702 97.902 286.765 98.6809 286.765C105.799 286.765 111.57 281.515 111.57 275.037C111.57 269.565 107.451 264.968 101.88 263.674Z"/>
</mask>
<path fill-rule="evenodd" clip-rule="evenodd" d="M101.88 263.674C103.056 260.113 103.685 256.351 103.685 252.461C103.685 230.115 82.9111 212 57.285 212C31.659 212 10.885 230.115 10.885 252.461C10.885 256.154 11.4522 259.731 12.5148 263.13C7.03295 264.479 3 269.037 3 274.451C3 280.929 8.77056 286.179 15.8889 286.179C17.101 286.179 18.274 286.027 19.3862 285.742C19.3797 285.887 19.3765 286.033 19.3765 286.179C19.3765 292.656 25.758 297.907 33.6301 297.907C35.8965 297.907 38.0393 297.472 39.9419 296.697C41.9086 301.774 48.9279 305.53 57.2854 305.53C65.8996 305.53 73.0921 301.54 74.7957 296.226C76.9435 297.293 79.4611 297.907 82.153 297.907C89.8612 297.907 96.1403 292.873 96.3984 286.582C97.1392 286.702 97.902 286.765 98.6809 286.765C105.799 286.765 111.57 281.515 111.57 275.037C111.57 269.565 107.451 264.968 101.88 263.674Z" fill="#FFE0B9"/>
<path d="M101.88 263.674L99.0315 262.733L98.0021 265.852L101.201 266.596L101.88 263.674ZM12.5148 263.13L13.2318 266.043L16.3303 265.28L15.3781 262.234L12.5148 263.13ZM19.3862 285.742L22.3832 285.876L22.5631 281.833L18.6424 282.836L19.3862 285.742ZM39.9419 296.697L42.7394 295.614L41.6371 292.768L38.8109 293.919L39.9419 296.697ZM74.7957 296.226L76.1305 293.539L73.0045 291.986L71.9389 295.31L74.7957 296.226ZM96.3984 286.582L96.8799 283.621L93.5396 283.078L93.4009 286.459L96.3984 286.582ZM100.685 252.461C100.685 256.025 100.109 259.47 99.0315 262.733L104.729 264.614C106.002 260.757 106.685 256.678 106.685 252.461H100.685ZM57.285 215C81.6533 215 100.685 232.145 100.685 252.461H106.685C106.685 228.086 84.1689 209 57.285 209L57.285 215ZM13.885 252.461C13.885 232.145 32.9168 215 57.285 215L57.285 209C30.4012 209 7.88496 228.086 7.88496 252.461H13.885ZM15.3781 262.234C14.4043 259.119 13.885 255.844 13.885 252.461H7.88496C7.88496 256.463 8.50011 260.342 9.65147 264.025L15.3781 262.234ZM6 274.451C6 270.623 8.87998 267.114 13.2318 266.043L11.7978 260.216C5.18592 261.844 -1.58466e-07 267.45 -1.78474e-07 274.451H6ZM15.8889 283.179C10.1546 283.179 6 279.012 6 274.451H-1.78474e-07C-2.02463e-07 282.846 7.38649 289.179 15.8889 289.179L15.8889 283.179ZM18.6424 282.836C17.7725 283.059 16.8493 283.179 15.8889 283.179L15.8889 289.179C17.3527 289.179 18.7756 288.995 20.13 288.649L18.6424 282.836ZM22.3765 286.179C22.3765 286.077 22.3787 285.976 22.3832 285.876L16.3891 285.609C16.3807 285.798 16.3765 285.989 16.3765 286.179H22.3765ZM33.6301 294.907C26.841 294.907 22.3765 290.479 22.3765 286.179H16.3765C16.3765 294.834 24.675 300.907 33.6301 300.907L33.6301 294.907ZM38.8109 293.919C37.2717 294.545 35.5133 294.907 33.6301 294.907L33.6301 300.907C36.2796 300.907 38.807 300.398 41.0729 299.476L38.8109 293.919ZM57.2854 302.53C53.5394 302.53 50.1745 301.686 47.5943 300.352C44.9829 299.003 43.3817 297.272 42.7394 295.614L37.1445 297.781C38.4689 301.2 41.3606 303.885 44.84 305.683C48.3504 307.497 52.6738 308.53 57.2854 308.53L57.2854 302.53ZM71.9389 295.31C71.3951 297.006 69.8512 298.808 67.2103 300.229C64.6028 301.632 61.148 302.53 57.2854 302.53L57.2854 308.53C62.0371 308.53 66.4856 307.433 70.0537 305.513C73.5886 303.61 76.4927 300.76 77.6525 297.142L71.9389 295.31ZM82.153 294.907C79.9152 294.907 77.8555 294.396 76.1305 293.539L73.4609 298.913C76.0315 300.19 79.007 300.907 82.153 300.907L82.153 294.907ZM93.4009 286.459C93.2287 290.658 88.7857 294.907 82.153 294.907L82.153 300.907C90.9368 300.907 99.052 295.088 99.3959 286.705L93.4009 286.459ZM98.6809 283.765C98.0636 283.765 97.4618 283.716 96.8799 283.621L95.9169 289.543C96.8166 289.689 97.7404 289.765 98.6809 289.765L98.6809 283.765ZM108.57 275.037C108.57 279.598 104.415 283.765 98.6809 283.765L98.6809 289.765C107.183 289.765 114.57 283.432 114.57 275.037H108.57ZM101.201 266.596C105.627 267.625 108.57 271.169 108.57 275.037H114.57C114.57 267.961 109.275 262.312 102.56 260.752L101.201 266.596Z" fill="#FFCF91" mask="url(#path-8-outside-3_774_38)"/>
</svg>
